<?xml version="1.0" encoding="UTF-8" standalone="no"?>
<svg
   xmlns:dc="http://purl.org/dc/elements/1.1/"
   xmlns:cc="http://creativecommons.org/ns#"
   xmlns:rdf="http://www.w3.org/1999/02/22-rdf-syntax-ns#"
   xmlns:svg="http://www.w3.org/2000/svg"
   xmlns="http://www.w3.org/2000/svg"
   id="svg37"
   xml:space="preserve"
   viewBox="165 322 740 122"
   preserveAspectRatio="xMinYMid meet"
   y="0px"
   x="0px"
   version="1.1"><metadata
     id="metadata43"><rdf:RDF><cc:Work
         rdf:about=""><dc:format>image/svg+xml</dc:format><dc:type
           rdf:resource="http://purl.org/dc/dcmitype/StillImage" /></cc:Work></rdf:RDF></metadata><defs
     id="defs41" /><g
     transform="translate(-7.7311,0.069895)"
     id="logo-group"><path
       stroke-miterlimit="2"
       d="m 432.72,438.46 0.1792,0.7936 q -2.0224,0.4864 -4.9152,0.4864 -3.6608,0 -5.1456,-2.048 -1.4848,-2.048 -1.4848,-7.0912 0,-5.0432 1.4848,-7.0912 1.4848,-2.048 5.1456,-2.048 2.688,0 4.5568,0.4608 l -0.1792,0.768 q -1.9968,-0.2816 -4.3776,-0.2816 -3.0976,0 -4.3264,1.8176 -1.2032,1.792 -1.2032,6.3744 0,4.5824 1.2032,6.4 1.2288,1.792 4.3264,1.792 2.7648,0 4.736,-0.3328 z"
       style="font-variant-ligatures:none;fill:#b72226;stroke:#b72226;stroke-width:1.51999998;stroke-miterlimit:2"
       id="path593130" /><path
       stroke-miterlimit="2"
       d="m 438.43,428.25 q 1.2544,-1.4592 4.2752,-1.4592 3.0208,0 4.2496,1.4592 1.2544,1.4592 1.2544,5.0176 0,3.5584 -1.2288,5.0176 -1.2288,1.4592 -4.2752,1.4592 -3.0464,0 -4.2752,-1.4592 -1.2288,-1.4592 -1.2288,-5.0176 0,-3.5584 1.2288,-5.0176 z m 7.7312,0.6656 q -0.9728,-1.2032 -3.456,-1.2032 -2.4832,0 -3.456,1.2032 -0.9728,1.2032 -0.9728,4.352 0,3.1488 0.9728,4.3776 0.9728,1.2032 3.456,1.2032 2.4832,0 3.456,-1.2032 0.9984,-1.2288 0.9984,-4.3776 0,-3.1488 -0.9984,-4.352 z"
       style="font-variant-ligatures:none;fill:#b72226;stroke:#b72226;stroke-width:1.51999998;stroke-miterlimit:2"
       id="path593132" /><path
       stroke-miterlimit="2"
       d="m 454.63,427.1 0.1024,2.176 q 2.8416,-2.4832 5.376,-2.4832 2.688,0 3.1232,2.4576 2.8416,-2.4576 5.3504,-2.4576 3.2,0 3.2,3.3792 v 9.2672 h -0.9984 v -9.0624 q -0.0256,-2.6624 -2.5088,-2.6624 -1.1264,0 -2.2016,0.5376 -1.0752,0.5376 -2.7648,1.8176 v 9.3696 H 462.31 v -9.0624 q 0,-2.6624 -2.5088,-2.6624 -1.1008,0 -2.2016,0.5376 -1.0752,0.5376 -2.7648,1.8176 v 9.3696 h -0.9984 v -12.339 z"
       style="font-variant-ligatures:none;fill:#b72226;stroke:#b72226;stroke-width:1.51999998;stroke-miterlimit:2"
       id="path593134" /><path
       stroke-miterlimit="2"
       d="m 478.73,427.1 0.1024,2.176 q 2.8416,-2.4832 5.376,-2.4832 2.688,0 3.1232,2.4576 2.8416,-2.4576 5.3504,-2.4576 3.2,0 3.2,3.3792 v 9.2672 h -0.9984 v -9.0624 q -0.0256,-2.6624 -2.5088,-2.6624 -1.1264,0 -2.2016,0.5376 -1.0752,0.5376 -2.7648,1.8176 v 9.3696 H 486.41 v -9.0624 q 0,-2.6624 -2.5088,-2.6624 -1.1008,0 -2.2016,0.5376 -1.0752,0.5376 -2.7648,1.8176 v 9.3696 h -0.9984 v -12.339 z"
       style="font-variant-ligatures:none;fill:#b72226;stroke:#b72226;stroke-width:1.51999998;stroke-miterlimit:2"
       id="path593136" /><path
       stroke-miterlimit="2"
       d="m 511.79,427.1 v 12.339 h -0.7936 l -0.1024,-2.1248 q -2.9696,2.432 -5.632,2.432 -3.328,0 -3.328,-3.3792 v -9.2672 h 1.024 v 9.0624 q -0.0256,1.3824 0.6144,2.0224 0.64,0.64 1.9712,0.64 1.1776,0 2.304,-0.5376 1.152,-0.5376 2.9184,-1.7664 v -9.4208 z"
       style="font-variant-ligatures:none;fill:#b72226;stroke:#b72226;stroke-width:1.51999998;stroke-miterlimit:2"
       id="path593138" /><path
       stroke-miterlimit="2"
       d="m 519.78,427.97 v 8.7552 q 0,1.9456 1.9712,1.9456 h 2.1504 l 0.128,0.7424 q -1.152,0.2048 -2.3552,0.2048 -2.9184,0 -2.9184,-2.7904 V 427.97 h -2.2272 v -0.7424 l 2.2272,-0.1024 v -3.84 h 1.024 v 3.8144 h 4.4032 v 0.8704 z"
       style="font-variant-ligatures:none;fill:#b72226;stroke:#b72226;stroke-width:1.51999998;stroke-miterlimit:2"
       id="path593140" /><path
       stroke-miterlimit="2"
       d="m 535.73,433.78 h -6.5792 q 0.1024,2.816 1.1776,3.9424 1.0752,1.1008 3.4816,1.1008 2.1248,0 4.224,-0.3072 l 0.128,0.7168 q -1.536,0.512 -4.48,0.512 -2.9952,0 -4.3008,-1.4848 -1.3056,-1.5104 -1.3056,-5.0432 0,-3.5328 1.2288,-4.9664 1.2544,-1.4592 4.1728,-1.4592 4.8896,0 4.9664,3.6352 0.0512,1.6896 -0.6144,2.5344 -0.64,0.8192 -2.0992,0.8192 z m -6.5792,-0.8448 h 6.4256 q 1.8944,0 1.8176,-2.4576 -0.0256,-1.4336 -0.9728,-2.0992 -0.9216,-0.6656 -2.8928,-0.6656 -2.4064,0 -3.3792,1.152 -0.9728,1.152 -0.9984,4.0704 z"
       style="font-variant-ligatures:none;fill:#b72226;stroke:#b72226;stroke-width:1.51999998;stroke-miterlimit:2"
       id="path593142" /><path
       stroke-miterlimit="2"
       d="m 544.09,437.03 h 0.3584 q 0.4352,0 0.4352,0.4352 v 1.536 q 0,0.4352 -0.4352,0.4352 H 544.09 q -0.4608,0 -0.4608,-0.4352 v -1.536 q 0,-0.4352 0.4608,-0.4352 z"
       style="font-variant-ligatures:none;fill:#b72226;stroke:#b72226;stroke-width:1.51999998;stroke-miterlimit:2"
       id="path593144" /><path
       stroke-miterlimit="2"
       d="m 567.67,438.46 0.1792,0.7936 q -2.0224,0.4864 -4.9152,0.4864 -3.6608,0 -5.1456,-2.048 -1.4848,-2.048 -1.4848,-7.0912 0,-5.0432 1.4848,-7.0912 1.4848,-2.048 5.1456,-2.048 2.688,0 4.5568,0.4608 l -0.1792,0.768 q -1.9968,-0.2816 -4.3776,-0.2816 -3.0976,0 -4.3264,1.8176 -1.2032,1.792 -1.2032,6.3744 0,4.5824 1.2032,6.4 1.2288,1.792 4.3264,1.792 2.7648,0 4.736,-0.3328 z"
       style="font-variant-ligatures:none;fill:#b72226;stroke:#b72226;stroke-width:1.51999998;stroke-miterlimit:2"
       id="path593146" /><path
       stroke-miterlimit="2"
       d="m 573.38,428.25 q 1.2544,-1.4592 4.2752,-1.4592 3.0208,0 4.2496,1.4592 1.2544,1.4592 1.2544,5.0176 0,3.5584 -1.2288,5.0176 -1.2288,1.4592 -4.2752,1.4592 -3.0464,0 -4.2752,-1.4592 -1.2288,-1.4592 -1.2288,-5.0176 0,-3.5584 1.2288,-5.0176 z m 7.7312,0.6656 q -0.9728,-1.2032 -3.456,-1.2032 -2.4832,0 -3.456,1.2032 -0.9728,1.2032 -0.9728,4.352 0,3.1488 0.9728,4.3776 0.9728,1.2032 3.456,1.2032 2.4832,0 3.456,-1.2032 0.9984,-1.2288 0.9984,-4.3776 0,-3.1488 -0.9984,-4.352 z"
       style="font-variant-ligatures:none;fill:#b72226;stroke:#b72226;stroke-width:1.51999998;stroke-miterlimit:2"
       id="path593148" /><path
       stroke-miterlimit="2"
       d="m 589.61,427.1 0.0768,2.176 q 3.2,-2.4832 5.888,-2.4832 3.328,0 3.328,3.3792 v 9.2672 h -1.024 v -9.0624 q 0,-1.3824 -0.6144,-2.0224 -0.6144,-0.64 -1.92,-0.64 -1.2544,0 -2.4832,0.5632 -1.2032,0.5376 -3.072,1.792 v 9.3696 h -0.9984 v -12.339 z"
       style="font-variant-ligatures:none;fill:#b72226;stroke:#b72226;stroke-width:1.51999998;stroke-miterlimit:2"
       id="path593150" /><path
       stroke-miterlimit="2"
       d="m 605.86,427.1 0.0768,2.176 q 3.2,-2.4832 5.888,-2.4832 3.328,0 3.328,3.3792 v 9.2672 h -1.024 v -9.0624 q 0,-1.3824 -0.6144,-2.0224 -0.6144,-0.64 -1.92,-0.64 -1.2544,0 -2.4832,0.5632 -1.2032,0.5376 -3.072,1.792 v 9.3696 h -0.9984 v -12.339 z"
       style="font-variant-ligatures:none;fill:#b72226;stroke:#b72226;stroke-width:1.51999998;stroke-miterlimit:2"
       id="path593152" /><path
       stroke-miterlimit="2"
       d="m 628.28,433.78 h -6.5792 q 0.1024,2.816 1.1776,3.9424 1.0752,1.1008 3.4816,1.1008 2.1248,0 4.224,-0.3072 l 0.128,0.7168 q -1.536,0.512 -4.48,0.512 -2.9952,0 -4.3008,-1.4848 -1.3056,-1.5104 -1.3056,-5.0432 0,-3.5328 1.2288,-4.9664 1.2544,-1.4592 4.1728,-1.4592 4.8896,0 4.9664,3.6352 0.0512,1.6896 -0.6144,2.5344 -0.64,0.8192 -2.0992,0.8192 z m -6.5792,-0.8448 h 6.4256 q 1.8944,0 1.8176,-2.4576 -0.0256,-1.4336 -0.9728,-2.0992 -0.9216,-0.6656 -2.8928,-0.6656 -2.4064,0 -3.3792,1.152 -0.9728,1.152 -0.9984,4.0704 z"
       style="font-variant-ligatures:none;fill:#b72226;stroke:#b72226;stroke-width:1.51999998;stroke-miterlimit:2"
       id="path593154" /><path
       stroke-miterlimit="2"
       d="m 645.2,438.54 0.1536,0.7168 q -1.8688,0.4864 -3.8656,0.4864 -3.1232,0 -4.4288,-1.4592 -1.28,-1.4592 -1.28,-5.0176 0,-3.5584 1.28,-5.0176 1.3056,-1.4592 4.4032,-1.4592 2.2272,0 3.6096,0.4864 l -0.1792,0.6912 q -1.3568,-0.256 -3.2512,-0.256 -2.6624,0 -3.7376,1.2032 -1.0496,1.1776 -1.0496,4.352 0,3.1744 1.0496,4.3776 1.0752,1.1776 3.7376,1.1776 2.1504,0 3.5584,-0.2816 z"
       style="font-variant-ligatures:none;fill:#b72226;stroke:#b72226;stroke-width:1.51999998;stroke-miterlimit:2"
       id="path593156" /><path
       stroke-miterlimit="2"
       d="m 652.08,427.97 v 8.7552 q 0,1.9456 1.9712,1.9456 h 2.1504 l 0.128,0.7424 q -1.152,0.2048 -2.3552,0.2048 -2.9184,0 -2.9184,-2.7904 V 427.97 h -2.2272 v -0.7424 l 2.2272,-0.1024 v -3.84 h 1.024 v 3.8144 h 4.4032 v 0.8704 z"
       style="font-variant-ligatures:none;fill:#b72226;stroke:#b72226;stroke-width:1.51999998;stroke-miterlimit:2"
       id="path593158" /><path
       stroke-miterlimit="2"
       d="m 661.24,437.03 h 0.3584 q 0.4352,0 0.4352,0.4352 v 1.536 q 0,0.4352 -0.4352,0.4352 H 661.24 q -0.4608,0 -0.4608,-0.4352 v -1.536 q 0,-0.4352 0.4608,-0.4352 z"
       style="font-variant-ligatures:none;fill:#b72226;stroke:#b72226;stroke-width:1.51999998;stroke-miterlimit:2"
       id="path593160" /><path
       stroke-miterlimit="2"
       d="m 684.82,438.46 0.1792,0.7936 q -2.0224,0.4864 -4.9152,0.4864 -3.6608,0 -5.1456,-2.048 -1.4848,-2.048 -1.4848,-7.0912 0,-5.0432 1.4848,-7.0912 1.4848,-2.048 5.1456,-2.048 2.688,0 4.5568,0.4608 l -0.1792,0.768 q -1.9968,-0.2816 -4.3776,-0.2816 -3.0976,0 -4.3264,1.8176 -1.2032,1.792 -1.2032,6.3744 0,4.5824 1.2032,6.4 1.2288,1.792 4.3264,1.792 2.7648,0 4.736,-0.3328 z"
       style="font-variant-ligatures:none;fill:#b72226;stroke:#b72226;stroke-width:1.51999998;stroke-miterlimit:2"
       id="path593162" /><path
       stroke-miterlimit="2"
       d="m 690.53,428.25 q 1.2544,-1.4592 4.2752,-1.4592 3.0208,0 4.2496,1.4592 1.2544,1.4592 1.2544,5.0176 0,3.5584 -1.2288,5.0176 -1.2288,1.4592 -4.2752,1.4592 -3.0464,0 -4.2752,-1.4592 -1.2288,-1.4592 -1.2288,-5.0176 0,-3.5584 1.2288,-5.0176 z m 7.7312,0.6656 q -0.9728,-1.2032 -3.456,-1.2032 -2.4832,0 -3.456,1.2032 -0.9728,1.2032 -0.9728,4.352 0,3.1488 0.9728,4.3776 0.9728,1.2032 3.456,1.2032 2.4832,0 3.456,-1.2032 0.9984,-1.2288 0.9984,-4.3776 0,-3.1488 -0.9984,-4.352 z"
       style="font-variant-ligatures:none;fill:#b72226;stroke:#b72226;stroke-width:1.51999998;stroke-miterlimit:2"
       id="path593164" /><path
       stroke-miterlimit="2"
       d="m 706.76,427.1 0.0768,2.176 q 3.2,-2.4832 5.888,-2.4832 3.328,0 3.328,3.3792 v 9.2672 h -1.024 v -9.0624 q 0,-1.3824 -0.6144,-2.0224 -0.6144,-0.64 -1.92,-0.64 -1.2544,0 -2.4832,0.5632 -1.2032,0.5376 -3.072,1.792 v 9.3696 h -0.9984 v -12.339 z"
       style="font-variant-ligatures:none;fill:#b72226;stroke:#b72226;stroke-width:1.51999998;stroke-miterlimit:2"
       id="path593166" /><path
       stroke-miterlimit="2"
       d="m 728.08,433.93 -4.0192,-0.5888 q -1.3824,-0.2048 -2.048,-0.9472 -0.64,-0.768 -0.64,-2.304 0,-2.1504 1.024,-2.7392 1.024,-0.6144 3.584,-0.5632 2.7648,0.0512 4.8896,0.3328 l -0.1024,0.7424 q -2.944,-0.1536 -4.6848,-0.1792 -2.2016,-0.0512 -2.9696,0.3584 -0.7424,0.384 -0.7424,2.048 0,1.2032 0.4864,1.7152 0.4864,0.512 1.5104,0.6656 l 4.0192,0.5888 q 1.408,0.2304 2.0992,0.9984 0.7168,0.7424 0.7168,2.2016 0,2.176 -1.1264,2.816 -1.1264,0.64 -3.84,0.64 -2.4576,0 -4.5824,-0.3072 l 0.1024,-0.7424 q 2.2016,0.1792 4.3776,0.1536 2.3808,-0.0256 3.2256,-0.4864 0.8448,-0.4864 0.8448,-2.0736 0,-1.1264 -0.5632,-1.6384 -0.5376,-0.512 -1.5616,-0.6912 z"
       style="font-variant-ligatures:none;fill:#b72226;stroke:#b72226;stroke-width:1.51999998;stroke-miterlimit:2"
       id="path593168" /><path
       stroke-miterlimit="2"
       d="m 743.63,433.78 h -6.5792 q 0.1024,2.816 1.1776,3.9424 1.0752,1.1008 3.4816,1.1008 2.1248,0 4.224,-0.3072 l 0.128,0.7168 q -1.536,0.512 -4.48,0.512 -2.9952,0 -4.3008,-1.4848 -1.3056,-1.5104 -1.3056,-5.0432 0,-3.5328 1.2288,-4.9664 1.2544,-1.4592 4.1728,-1.4592 4.8896,0 4.9664,3.6352 0.0512,1.6896 -0.6144,2.5344 -0.64,0.8192 -2.0992,0.8192 z m -6.5792,-0.8448 h 6.4256 q 1.8944,0 1.8176,-2.4576 -0.0256,-1.4336 -0.9728,-2.0992 -0.9216,-0.6656 -2.8928,-0.6656 -2.4064,0 -3.3792,1.152 -0.9728,1.152 -0.9984,4.0704 z"
       style="font-variant-ligatures:none;fill:#b72226;stroke:#b72226;stroke-width:1.51999998;stroke-miterlimit:2"
       id="path593170" /><path
       stroke-miterlimit="2"
       d="m 758.83,426.79 -0.1536,0.9728 h -0.512 q -1.1776,0 -2.3552,0.5376 -1.152,0.512 -3.0208,1.7152 v 9.4208 H 751.79 v -12.339 h 0.768 l 0.128,2.176 q 3.1232,-2.4832 5.632,-2.4832 z"
       style="font-variant-ligatures:none;fill:#b72226;stroke:#b72226;stroke-width:1.51999998;stroke-miterlimit:2"
       id="path593172" /><path
       stroke-miterlimit="2"
       d="m 773.45,427.1 -4.9152,12.058 q -0.1536,0.2816 -0.4608,0.2816 h -1.024 q -0.3072,0 -0.4352,-0.2816 L 761.6996,427.1 h 1.1008 l 3.6864,9.2416 q 0.1536,0.3584 0.4608,1.1264 0.3072,0.768 0.4608,1.152 h 0.3328 l 0.9472,-2.304 3.6608,-9.216 z"
       style="font-variant-ligatures:none;fill:#b72226;stroke:#b72226;stroke-width:1.51999998;stroke-miterlimit:2"
       id="path593174" /><path
       stroke-miterlimit="2"
       d="m 784.93,433.78 h -6.5792 q 0.1024,2.816 1.1776,3.9424 1.0752,1.1008 3.4816,1.1008 2.1248,0 4.224,-0.3072 l 0.128,0.7168 q -1.536,0.512 -4.48,0.512 -2.9952,0 -4.3008,-1.4848 -1.3056,-1.5104 -1.3056,-5.0432 0,-3.5328 1.2288,-4.9664 1.2544,-1.4592 4.1728,-1.4592 4.8896,0 4.9664,3.6352 0.0512,1.6896 -0.6144,2.5344 -0.64,0.8192 -2.0992,0.8192 z m -6.5792,-0.8448 h 6.4256 q 1.8944,0 1.8176,-2.4576 -0.0256,-1.4336 -0.9728,-2.0992 -0.9216,-0.6656 -2.8928,-0.6656 -2.4064,0 -3.3792,1.152 -0.9728,1.152 -0.9984,4.0704 z"
       style="font-variant-ligatures:none;fill:#b72226;stroke:#b72226;stroke-width:1.51999998;stroke-miterlimit:2"
       id="path593176" /><path
       stroke-miterlimit="2"
       class="c1"
       d="m 429.66,399.63 h -23.79 l -17.684,-22.758 -5.6942,-7.3221 v 30.078 h -17.843 v -71.371 h 17.843 v 29.669 l 6.4374,-8.8893 15.065,-20.777 h 22.799 l -27.111,34.129 z"
       style="font-variant-ligatures:normal;fill:currentColor;stroke-width:0;stroke-miterlimit:2"
       id="path36" /><path
       stroke-miterlimit="2"
       class="c1"
       d="m 489.94,375.49 c 0,14.375 -11.203,26.159 -28.358,26.159 -17.154,0 -28.357,-11.784 -28.357,-26.159 0,-14.376 11.203,-26.029 28.357,-26.029 17.155,0 28.358,11.653 28.358,26.029 z m -17.589,0.0648 c 0,-6.2182 -4.8214,-11.26 -10.769,-11.26 -5.9469,0 -10.768,5.0413 -10.768,11.26 0,6.2194 4.8214,11.261 10.768,11.261 5.9476,0 10.769,-5.0413 10.769,-11.261 z"
       style="font-variant-ligatures:normal;fill:currentColor;stroke-width:0;stroke-miterlimit:2"
       id="path39" /><path
       stroke-miterlimit="2"
       class="c1"
       d="m 582.03,368.07 v 31.626 h -16.85 v -25.31 c 0,-7.8062 -2.705,-10.591 -7.5466,-10.591 -3.8756,0 -5.7734,2.6072 -6.701,5.6107 v 30.29 h -16.85 v -25.31 c 0,-7.8062 -2.705,-10.591 -7.5466,-10.591 -7.009,0 -7.5682,5.5489 -7.5682,9.538 v 26.362 h -16.851 v -48.466 h 16.851 v 5.9104 c 0,0 3.118,-6.9484 13.922,-6.9484 7.3665,0 14.017,3.2311 16.737,10.304 1.696,-3.3682 6.1805,-10.304 14.363,-10.304 9.6204,0 18.045,5.485 18.044,17.88 z"
       style="font-variant-ligatures:normal;fill:currentColor;stroke-width:0;stroke-miterlimit:2"
       id="path42" /><path
       stroke-miterlimit="2"
       class="c1"
       d="m 675.81,368.07 v 31.626 h -16.851 v -25.31 c 0,-7.8062 -2.705,-10.591 -7.5466,-10.591 -3.8756,0 -5.7734,2.6072 -6.701,5.6107 v 30.29 h -16.852 v -25.31 c 0,-7.8062 -2.705,-10.591 -7.5466,-10.591 -7.009,0 -7.5682,5.5489 -7.5682,9.538 v 26.362 h -16.851 v -48.466 h 16.851 v 5.9104 c 0,0 3.118,-6.9484 13.922,-6.9484 7.3665,0 14.017,3.2311 16.737,10.304 1.696,-3.3682 6.1805,-10.304 14.363,-10.304 9.6204,0 18.045,5.485 18.044,17.88 z"
       style="font-variant-ligatures:normal;fill:currentColor;stroke-width:0;stroke-miterlimit:2"
       id="path45" /><path
       stroke-miterlimit="2"
       class="c1"
       d="m 739.32,351.22 v 31.289 c 0,17.986 -18.488,18.973 -25.135,18.973 -6.6466,0 -25.135,-0.98749 -25.135,-18.973 V 351.22 h 16.851 v 28.355 c 0,2.4805 0.95031,7.9244 8.284,7.9244 7.3343,0 8.2839,-5.4438 8.2839,-7.9244 V 351.22 Z"
       style="font-variant-ligatures:normal;fill:currentColor;stroke-width:0;stroke-miterlimit:2"
       id="path48" /><path
       stroke-miterlimit="2"
       class="c1"
       d="m 781.18,387.53 v 13.983 c -9.8662,0 -25.352,-2.0809 -25.352,-18.952 V 366.11 h -5.3171 v -14.859 h 5.3171 v -14.549 h 16.851 v 42.903 c 10e-6,2.8872 1.5662,7.9254 8.5011,7.9254 z"
       style="font-variant-ligatures:normal;fill:currentColor;stroke-width:0;stroke-miterlimit:2"
       id="path51" /><path
       stroke-miterlimit="2"
       class="c3"
       d="m 775.88,360.86 c 0,-5.3213 4.1804,-9.6368 9.3383,-9.6368 5.1565,0 9.3369,4.3155 9.3369,9.6368 0,5.3225 -4.1804,9.637 -9.3369,9.637 -5.1579,0 -9.3383,-4.3144 -9.3383,-9.637 z"
       style="font-variant-ligatures:normal;fill:#b72226;stroke-width:0;stroke-miterlimit:2"
       id="path53" /><path
       stroke-miterlimit="2"
       class="c1"
       d="m 805.43,399.7 v -48.467 h 16.851 V 399.7 Z"
       style="font-variant-ligatures:normal;fill:currentColor;stroke-width:0;stroke-miterlimit:2"
       id="path56" /><path
       stroke-miterlimit="2"
       class="c3"
       d="m 825.71,360.85 c 0,-5.3213 4.1804,-9.6368 9.3383,-9.6368 5.1565,0 9.3369,4.3155 9.3369,9.6368 0,5.3225 -4.1804,9.637 -9.3369,9.637 -5.1579,0 -9.3383,-4.3144 -9.3383,-9.637 z"
       style="font-variant-ligatures:normal;fill:#b72226;stroke-width:0;stroke-miterlimit:2"
       id="path58" /><path
       style="fill:#b72226;stroke-width:0.75"
       d="m 254.48,324.19 c -0.19808,0.003 -0.51959,0.0221 -0.71474,0.0421 -0.19473,0.02 -0.55127,0.0755 -0.7923,0.12385 -0.2406,0.048 -0.66052,0.16012 -0.9324,0.24936 -0.27188,0.0892 -0.70556,0.26397 -0.96367,0.38907 -0.25771,0.1251 -0.6918,0.37696 -0.96495,0.56044 -0.27271,0.18306 -0.67387,0.49206 -0.89197,0.6868 -0.21768,0.19516 -0.49164,0.4637 -0.60799,0.59756 -0.11634,0.13386 -0.31775,0.38114 -0.44744,0.54919 -0.12927,0.16763 -0.33027,0.46245 -0.44661,0.65469 -0.11593,0.19224 -0.30358,0.54293 -0.41617,0.7794 -0.11301,0.23644 -0.2698,0.62675 -0.34862,0.86692 -0.0784,0.24061 -0.18139,0.62509 -0.22809,0.8544 -0.0471,0.22935 -0.10509,0.59923 -0.1297,0.82193 -0.0242,0.22267 -0.0438,0.56045 -0.0434,0.7506 4.2e-4,0.19015 0.0196,0.47496 0.0425,0.63342 0.0229,0.15804 0.0334,0.29565 0.0238,0.30566 -0.01,0.01 -0.36196,0.0717 -0.7827,0.13761 -0.42075,0.0663 -1.1284,0.18682 -1.5729,0.26855 -0.44452,0.0817 -1.1951,0.23394 -1.668,0.33819 -0.47287,0.10467 -1.1976,0.27438 -1.6105,0.3778 -0.41283,0.103 -1.0225,0.26229 -1.3552,0.35362 -0.33234,0.0913 -1.0304,0.29649 -1.5512,0.45619 -0.52042,0.15972 -1.2523,0.39574 -1.6263,0.52376 -0.37364,0.12844 -0.97868,0.34528 -1.344,0.48163 -0.36571,0.13636 -1.0504,0.40366 -1.522,0.59381 -0.47204,0.19057 -1.2331,0.51291 -1.6918,0.71641 -0.4587,0.20349 -1.3686,0.63509 -2.0224,0.95865 -0.65343,0.324 -1.5917,0.80985 -2.085,1.0796 -0.49289,0.27022 -1.3111,0.73976 -1.8172,1.0438 -0.50623,0.30399 -1.243,0.76147 -1.6376,1.0162 -0.39448,0.2552 -1.0588,0.70098 -1.477,0.99082 -0.41825,0.28982 -1.1918,0.8511 -1.7193,1.2477 -0.5275,0.39615 -1.3052,1.0037 -1.7284,1.3507 -0.42325,0.34653 -1.1084,0.92737 -1.522,1.2902 -0.41408,0.36279 -1.0621,0.95078 -1.4408,1.3064 -0.37821,0.35528 -1.0913,1.0575 -1.5846,1.56 -0.49289,0.5029 -1.1422,1.1855 -1.4424,1.5178 -0.30024,0.33193 -0.7956,0.89445 -1.1005,1.2502 -0.30524,0.35528 -0.84023,1.0029 -1.1889,1.4386 -0.34903,0.43577 -0.87818,1.1205 -1.1764,1.522 -0.29815,0.40115 -0.74184,1.0145 -0.9858,1.3628 -0.24436,0.3482 -0.65677,0.95783 -0.91695,1.3552 -0.2602,0.3974 -0.6576,1.0225 -0.8832,1.3894 -0.2256,0.36696 -0.62383,1.0396 -0.88485,1.495 -0.26062,0.45536 -0.69805,1.2531 -0.97162,1.7722 -0.27356,0.51958 -0.70515,1.3836 -0.95955,1.9198 -0.25395,0.53667 -0.61257,1.3248 -0.79688,1.7514 -0.18431,0.427 -0.48163,1.1417 -0.66052,1.5892 -0.17889,0.44702 -0.44744,1.151 -0.59673,1.5638 -0.14929,0.41283 -0.38656,1.0976 -0.52751,1.522 -0.14094,0.42451 -0.37863,1.1842 -0.52792,1.6888 -0.1497,0.50457 -0.39198,1.3865 -0.53835,1.9599 -0.14637,0.57338 -0.3507,1.427 -0.4537,1.8974 -0.10342,0.46996 -0.2723,1.3144 -0.3753,1.8765 -0.103,0.5617 -0.25312,1.4812 -0.3336,2.0433 -0.0801,0.5617 -0.1839,1.3686 -0.2306,1.7931 -0.0463,0.42409 -0.11217,1.0904 -0.14595,1.4804 -0.0334,0.3899 -0.0855,1.0746 -0.11551,1.522 -0.0346,0.51833 -0.0542,1.6826 -0.0542,3.2109 4.2e-4,1.4974 0.0204,2.703 0.0538,3.2109 0.0296,0.44702 0.0813,1.1414 0.1151,1.5429 0.0338,0.40115 0.0901,0.99248 0.12552,1.3136 0.035,0.32109 0.11133,0.94035 0.1693,1.3761 0.058,0.43577 0.17806,1.2331 0.2673,1.7722 0.0892,0.53876 0.24854,1.402 0.35445,1.9182 0.10592,0.51583 0.2673,1.2572 0.3582,1.6472 0.0913,0.3899 0.27773,1.1264 0.41408,1.6367 0.13678,0.5104 0.36947,1.3264 0.5175,1.814 0.14762,0.48747 0.3165,1.0254 0.37488,1.196 0.0584,0.17013 0.10634,0.39906 0.10634,0.50832 0,0.10967 0.0279,0.41408 0.0625,0.67637 0.0342,0.2623 0.10842,0.65261 0.16429,0.86737 0.0559,0.21476 0.16097,0.5592 0.23394,0.76561 0.073,0.20599 0.23394,0.57712 0.35779,0.82402 0.12385,0.24686 0.31192,0.58463 0.41783,0.7506 0.10592,0.16596 0.31484,0.45911 0.46454,0.65093 0.14929,0.19224 0.43368,0.51125 0.63175,0.7089 0.1985,0.19808 0.45828,0.4341 0.57755,0.52501 0.11968,0.0905 0.21726,0.17639 0.21726,0.19015 0,0.0142 -0.108,0.0592 -0.23978,0.10008 -0.13177,0.0412 -0.46495,0.1643 -0.74017,0.27396 -0.27522,0.10968 -0.71599,0.30109 -0.97995,0.42618 -0.26396,0.12469 -0.70473,0.35445 -0.97995,0.51083 -0.27522,0.15596 -0.72558,0.43618 -1.0008,0.62216 -0.27522,0.1864 -0.68805,0.48664 -0.9174,0.6672 -0.22935,0.18098 -0.71807,0.63134 -1.0863,1.0008 -0.36821,0.36988 -0.79688,0.83153 -0.95243,1.0267 -0.15554,0.19473 -0.46203,0.62341 -0.68096,0.95205 -0.2185,0.32859 -0.54376,0.88192 -0.72224,1.2302 -0.17848,0.34777 -0.43034,0.90157 -0.56003,1.2306 -0.12969,0.32901 -0.31734,0.88237 -0.417,1.2302 -0.0997,0.34778 -0.22893,0.86655 -0.2869,1.1534 -0.0584,0.28648 -0.13469,0.71807 -0.16931,0.9591 -0.035,0.24061 -0.0851,0.65344 -0.11175,0.9174 -0.0263,0.26354 -0.0505,0.84525 -0.0534,1.2927 l -0.005,0.81315 0.11968,0.25896 c 0.0988,0.21434 0.22809,0.36488 0.7506,0.87615 0.34694,0.33986 0.81855,0.77355 1.0479,0.96413 0.22935,0.19057 0.58588,0.47413 0.7923,0.62967 0.20641,0.15596 0.61007,0.44244 0.89655,0.63717 0.28689,0.19474 0.73725,0.48164 1.0008,0.6376 0.26396,0.15596 0.7623,0.42784 1.1075,0.60381 0.34569,0.17598 0.89903,0.43368 1.2302,0.57255 0.3311,0.13886 0.81773,0.32901 1.0817,0.42242 0.26396,0.0934 0.69513,0.23435 0.9591,0.31317 0.26396,0.0792 0.71432,0.20099 1.0008,0.27146 0.28689,0.07 0.77475,0.17389 1.0842,0.2306 0.30941,0.0567 0.7881,0.13219 1.0634,0.16722 0.27522,0.035 0.74434,0.0847 1.0425,0.11009 0.29815,0.0259 1.0112,0.0463 1.5846,0.0463 0.57337,0 1.2865,-0.0213 1.5846,-0.0471 0.29815,-0.0259 0.7581,-0.0751 1.0216,-0.10884 0.26396,-0.0342 0.72349,-0.10716 1.0216,-0.16221 0.29815,-0.0546 0.74851,-0.14845 1.0008,-0.20809 0.25228,-0.0596 0.68388,-0.17471 0.9591,-0.25561 0.27522,-0.0805 0.70681,-0.21893 0.9591,-0.30691 0.25228,-0.0884 0.65594,-0.23895 0.89655,-0.33486 0.24102,-0.0959 0.74184,-0.31525 1.113,-0.48789 0.59547,-0.27647 0.6843,-0.30691 0.75225,-0.25729 0.0425,0.0308 0.3582,0.28273 0.70098,0.55921 0.34319,0.27646 0.96157,0.75644 1.3744,1.0658 0.41283,0.30983 1.0412,0.7677 1.3965,1.0171 0.35528,0.24977 1.0308,0.70681 1.5004,1.0158 0.46996,0.309 1.3148,0.83693 1.877,1.1738 0.56253,0.33652 1.4069,0.82192 1.8773,1.0792 0.47037,0.25688 1.2585,0.67054 1.7514,0.91905 0.49331,0.24854 1.2531,0.6155 1.6888,0.81563 0.43576,0.20016 1.2051,0.53751 1.7097,0.74977 0.50457,0.21225 1.2364,0.5079 1.6263,0.65718 0.38989,0.14929 1.0842,0.40366 1.5429,0.56504 0.4587,0.16138 1.1718,0.39949 1.5846,0.52959 0.41283,0.13011 1.1072,0.33861 1.5429,0.46329 0.43576,0.1251 1.2334,0.33735 1.7722,0.47204 0.53918,0.13511 1.3365,0.32109 1.7722,0.41408 0.43576,0.093 1.1396,0.23436 1.5638,0.31442 0.4245,0.0797 1.0896,0.19432 1.4787,0.25437 0.38906,0.0605 1.0458,0.15429 1.4595,0.2085 0.41366,0.0546 1.0246,0.12802 1.3569,0.16388 0.33276,0.0355 0.95197,0.0926 1.3761,0.12635 0.4245,0.0342 1.1564,0.0851 1.6263,0.11301 0.47037,0.0283 1.7368,0.0517 2.8148,0.0521 1.0892,4.1e-4 2.3582,-0.0229 2.8564,-0.0521 0.49331,-0.0292 1.3377,-0.0897 1.8765,-0.13469 0.53918,-0.0455 1.2989,-0.1201 1.6888,-0.16597 0.38989,-0.0459 1.0375,-0.13052 1.4386,-0.18807 0.40157,-0.0575 1.0612,-0.16054 1.467,-0.22851 0.40532,-0.0679 1.0713,-0.19015 1.4804,-0.27105 0.40866,-0.0813 1.0342,-0.21351 1.3894,-0.29398 0.3557,-0.0805 1.0216,-0.24103 1.4804,-0.35738 0.4587,-0.11592 1.2468,-0.32984 1.7514,-0.47454 0.50457,-0.14511 1.3023,-0.38906 1.7722,-0.5421 0.47037,-0.15304 1.1926,-0.3999 1.6054,-0.54835 0.41283,-0.14846 1.2002,-0.44828 1.7498,-0.66637 0.54918,-0.21809 1.4032,-0.57505 1.8974,-0.79312 0.49414,-0.2181 1.3552,-0.61967 1.914,-0.89198 0.55878,-0.27271 1.3536,-0.67595 1.766,-0.89655 0.41241,-0.22059 1.0621,-0.57921 1.444,-0.79687 0.38198,-0.2181 1.0471,-0.61216 1.4782,-0.8757 0.43076,-0.26397 1.1759,-0.73977 1.6555,-1.0571 0.47955,-0.31734 1.1405,-0.76935 1.4683,-1.0041 0.32818,-0.23519 0.85905,-0.62425 1.1801,-0.86527 0.32109,-0.24061 0.9366,-0.71766 1.3673,-1.06 l 0.78353,-0.62259 0.67595,0.31401 c 0.37197,0.17263 0.91072,0.4074 1.1972,0.52125 0.2869,0.11383 0.84023,0.30982 1.2302,0.43617 0.3899,0.12594 0.98123,0.29649 1.3136,0.37864 0.33277,0.0826 0.8619,0.19682 1.1764,0.25437 0.31483,0.0575 0.78397,0.13219 1.0425,0.16597 0.25895,0.0338 0.71473,0.0826 1.0129,0.10842 0.29816,0.0259 1.0112,0.0471 1.5846,0.0471 0.57338,0 1.2865,-0.0205 1.5846,-0.0463 0.29815,-0.0254 0.77684,-0.0755 1.0633,-0.11093 0.2869,-0.0355 0.88988,-0.13802 1.3406,-0.22768 0.45036,-0.0897 1.1455,-0.25645 1.5442,-0.37113 0.39907,-0.11426 1.025,-0.31817 1.3911,-0.45327 0.36613,-0.1347 0.87195,-0.33611 1.1242,-0.44662 0.25229,-0.11092 0.72141,-0.3361 1.0425,-0.5004 0.32109,-0.16429 0.7998,-0.42617 1.0634,-0.58213 0.26397,-0.15596 0.7548,-0.46954 1.0912,-0.6968 0.33652,-0.22727 0.9066,-0.64927 1.2668,-0.9378 0.35987,-0.28857 0.9591,-0.82193 1.3315,-1.1852 0.57588,-0.56212 0.69431,-0.69931 0.79358,-0.92033 0.0909,-0.20224 0.12051,-0.34236 0.13594,-0.63634 0.0109,-0.20725 -0.002,-0.70557 -0.0292,-1.1067 -0.0271,-0.40158 -0.0776,-0.9549 -0.11259,-1.2302 -0.0346,-0.27522 -0.11968,-0.79065 -0.18848,-1.1451 -0.0688,-0.35445 -0.20725,-0.92993 -0.30733,-1.2785 -0.10008,-0.34861 -0.28815,-0.90277 -0.41783,-1.2318 -0.12969,-0.32901 -0.37947,-0.87945 -0.55461,-1.2235 -0.17556,-0.34403 -0.5004,-0.89783 -0.72183,-1.2302 -0.22184,-0.33277 -0.53084,-0.7644 -0.6868,-0.9591 -0.15637,-0.19516 -0.52834,-0.60507 -0.82732,-0.91155 -0.29899,-0.3065 -0.72183,-0.70723 -0.9399,-0.89033 -0.21768,-0.18306 -0.58589,-0.47121 -0.81735,-0.64051 -0.23186,-0.16971 -0.62342,-0.43201 -0.87068,-0.58338 -0.24728,-0.15137 -0.6772,-0.39448 -0.9549,-0.54043 -0.27814,-0.14595 -0.73975,-0.36696 -1.0267,-0.49123 -0.28648,-0.12427 -0.72767,-0.29773 -0.97995,-0.38489 -0.25229,-0.0876 -0.46579,-0.16472 -0.47455,-0.17097 -0.008,-0.007 0.0479,-0.0634 0.1251,-0.12635 0.0776,-0.0629 0.35362,-0.32193 0.61382,-0.57504 0.26021,-0.25354 0.60007,-0.62967 0.75563,-0.8361 0.15553,-0.20642 0.35986,-0.50207 0.45453,-0.6572 0.0946,-0.1547 0.25437,-0.44577 0.35486,-0.64635 0.1005,-0.20057 0.24895,-0.54293 0.33026,-0.76057 0.0813,-0.21768 0.18849,-0.55587 0.23853,-0.7506 0.0497,-0.19516 0.11676,-0.50457 0.14928,-0.68805 0.0321,-0.18348 0.07,-0.51208 0.0838,-0.72975 0.0184,-0.29274 0.0667,-0.52709 0.18431,-0.89655 0.0876,-0.27522 0.25563,-0.81938 0.37364,-1.2093 0.11801,-0.3899 0.32484,-1.1217 0.45995,-1.6263 0.13511,-0.50457 0.32192,-1.2427 0.41533,-1.6405 0.0934,-0.39782 0.25396,-1.1376 0.35695,-1.6442 0.10342,-0.50625 0.25229,-1.3069 0.3311,-1.7789 0.0788,-0.47162 0.20016,-1.2706 0.2698,-1.7752 0.0692,-0.50457 0.16305,-1.2836 0.2085,-1.7306 0.0451,-0.44745 0.11092,-1.1884 0.14553,-1.6472 0.0346,-0.4587 0.0851,-1.3315 0.11176,-1.939 0.03,-0.68722 0.0392,-1.8144 0.0242,-2.9816 -0.0129,-1.0321 -0.0534,-2.3081 -0.0892,-2.8356 -0.0358,-0.52751 -0.11176,-1.4191 -0.16806,-1.9808 -0.0563,-0.56212 -0.15012,-1.3782 -0.20891,-1.814 -0.0583,-0.43577 -0.17347,-1.2051 -0.25521,-1.7097 -0.0822,-0.50457 -0.24019,-1.3678 -0.35152,-1.9182 -0.11135,-0.55044 -0.27898,-1.3294 -0.37197,-1.7306 -0.0934,-0.40158 -0.27438,-1.1238 -0.40241,-1.6054 -0.1276,-0.48164 -0.35152,-1.2698 -0.49706,-1.7514 -0.14595,-0.48164 -0.41533,-1.3186 -0.59881,-1.8594 -0.18348,-0.54127 -0.50582,-1.4328 -0.71683,-1.9808 -0.21058,-0.54836 -0.5471,-1.382 -0.74768,-1.8524 -0.20016,-0.46996 -0.52041,-1.1926 -0.71098,-1.6054 -0.19015,-0.41241 -0.56504,-1.1818 -0.83273,-1.7092 -0.26771,-0.52751 -0.64969,-1.2552 -0.84862,-1.6175 -0.19933,-0.36196 -0.52375,-0.93405 -0.72141,-1.2718 -0.19725,-0.33735 -0.53751,-0.9045 -0.756,-1.2598 -0.21851,-0.35571 -0.67804,-1.0676 -1.0212,-1.5821 -0.3432,-0.51457 -0.84023,-1.2373 -1.105,-1.6054 -0.2648,-0.36821 -0.66012,-0.9045 -0.87863,-1.1909 -0.21851,-0.2869 -0.65386,-0.84023 -0.96742,-1.2302 -0.31359,-0.3899 -0.8607,-1.0467 -1.2155,-1.4595 -0.35487,-0.41283 -0.8949,-1.0229 -1.1997,-1.3552 -0.30525,-0.33277 -1.073,-1.1209 -1.706,-1.7518 -0.63301,-0.63093 -1.4324,-1.4002 -1.7764,-1.7097 -0.34402,-0.30984 -0.88822,-0.78938 -1.2093,-1.0658 -0.32109,-0.27647 -0.9216,-0.77565 -1.3344,-1.1084 -0.41283,-0.33318 -1.0884,-0.8586 -1.5012,-1.1676 -0.41283,-0.309 -1.0037,-0.74059 -1.3136,-0.95955 -0.30983,-0.2185 -0.87277,-0.6034 -1.251,-0.8553 -0.37822,-0.25186 -1.035,-0.67512 -1.4595,-0.9399 -0.42451,-0.26479 -1.1468,-0.69722 -1.6054,-0.96037 -0.4587,-0.26313 -1.0967,-0.61967 -1.4182,-0.79185 -0.32109,-0.17264 -0.97785,-0.51083 -1.4595,-0.75143 -0.48121,-0.24103 -1.2122,-0.59214 -1.6242,-0.77977 -0.41158,-0.18807 -1.1155,-0.4979 -1.5638,-0.68805 -0.44827,-0.19016 -1.2088,-0.49707 -1.6905,-0.6818 -0.48163,-0.18431 -1.251,-0.46621 -1.7097,-0.62633 -0.4587,-0.15971 -1.2656,-0.42326 -1.7931,-0.58505 -0.5275,-0.1618 -1.231,-0.36863 -1.5638,-0.45996 -0.33235,-0.0913 -0.95077,-0.2527 -1.374,-0.35904 -0.42325,-0.10633 -1.1455,-0.27522 -1.6054,-0.3753 -0.45995,-0.10008 -1.1926,-0.24853 -1.6284,-0.33026 -0.43576,-0.0813 -1.1468,-0.20391 -1.5796,-0.2723 -0.43285,-0.0684 -0.7944,-0.13178 -0.80355,-0.14053 -0.009,-0.009 0.002,-0.14595 0.0254,-0.30399 0.023,-0.15846 0.0422,-0.44327 0.0425,-0.63342 4.1e-4,-0.19015 -0.0196,-0.52792 -0.0442,-0.7506 -0.0246,-0.22267 -0.0813,-0.58213 -0.12551,-0.79852 -0.0446,-0.21642 -0.15638,-0.61883 -0.24854,-0.8949 -0.0922,-0.27564 -0.25228,-0.68013 -0.35611,-0.89903 -0.10342,-0.21892 -0.27522,-0.53876 -0.38114,-0.71056 -0.10592,-0.17223 -0.32401,-0.48915 -0.48456,-0.70431 -0.16054,-0.21559 -0.4833,-0.58297 -0.7164,-0.81645 -0.23352,-0.2331 -0.6009,-0.55587 -0.81645,-0.71682 -0.21517,-0.16097 -0.54168,-0.38364 -0.72516,-0.49457 -0.18348,-0.1105 -0.51083,-0.28439 -0.72767,-0.38614 -0.21684,-0.10134 -0.6109,-0.25646 -0.8757,-0.34403 -0.26479,-0.088 -0.67846,-0.19849 -0.9195,-0.24561 -0.24061,-0.0471 -0.63217,-0.10508 -0.86985,-0.12802 -0.23727,-0.0233 -0.5938,-0.0396 -0.7923,-0.0367 z m 0.34861,2.989 c 0.16055,0.007 0.44536,0.04 0.63301,0.0738 0.18765,0.0334 0.48706,0.10842 0.66553,0.1668 0.17848,0.058 0.47497,0.18181 0.6597,0.2748 0.18431,0.0926 0.45745,0.25062 0.60631,0.3507 0.14929,0.1005 0.39657,0.29565 0.55003,0.43451 0.15345,0.13844 0.39197,0.39281 0.53001,0.56462 0.13844,0.1718 0.33068,0.44827 0.42742,0.61382 0.0972,0.16597 0.23894,0.45495 0.31525,0.6426 0.0763,0.18723 0.17556,0.48414 0.2206,0.65969 0.0451,0.17556 0.10382,0.52291 0.13052,0.7719 0.0375,0.34403 0.0375,0.56503 0.001,0.92452 -0.0267,0.2598 -0.0959,0.65053 -0.15388,0.86858 -0.058,0.21767 -0.20642,0.6034 -0.32984,0.85695 -0.12386,0.25354 -0.33611,0.61007 -0.47205,0.7923 -0.13594,0.18223 -0.40533,0.48289 -0.59923,0.66803 -0.19348,0.18515 -0.46704,0.4145 -0.60715,0.50957 -0.14053,0.0955 -0.42117,0.25646 -0.62425,0.35779 -0.20266,0.10134 -0.52792,0.23394 -0.72308,0.29524 -0.19474,0.0613 -0.5325,0.13844 -0.7506,0.17139 -0.21767,0.0325 -0.56503,0.0596 -0.77145,0.0596 -0.20641,0 -0.54752,-0.0279 -0.75772,-0.0621 -0.21059,-0.0338 -0.53418,-0.10967 -0.71975,-0.16846 -0.18556,-0.0584 -0.46412,-0.16305 -0.61841,-0.23227 -0.15471,-0.0696 -0.45912,-0.2452 -0.6772,-0.39032 -0.21768,-0.14553 -0.54168,-0.40907 -0.71975,-0.58588 -0.17765,-0.17681 -0.41783,-0.44577 -0.53376,-0.59798 -0.11475,-0.153 -0.32025,-0.5025 -0.456,-0.77774 -0.13875,-0.27976 -0.2925,-0.67126 -0.3495,-0.88725 -0.057,-0.21301 -0.12525,-0.57001 -0.15225,-0.79275 -0.0293,-0.24001 -0.0375,-0.5745 -0.021,-0.822 0.0154,-0.22936 0.063,-0.57672 0.1055,-0.77146 0.0425,-0.19515 0.13595,-0.51541 0.20767,-0.71265 0.0717,-0.19682 0.21434,-0.50582 0.31734,-0.68638 0.103,-0.18056 0.29107,-0.46412 0.41825,-0.63009 0.12677,-0.16555 0.35195,-0.41491 0.49998,-0.55295 0.14762,-0.13844 0.36696,-0.324 0.48706,-0.41199 0.1201,-0.0884 0.33986,-0.23102 0.48789,-0.31776 0.14803,-0.0863 0.42451,-0.22101 0.61382,-0.2994 0.18974,-0.0788 0.50958,-0.18223 0.71057,-0.23061 0.20141,-0.048 0.5446,-0.0992 0.7623,-0.11384 0.21809,-0.0146 0.5275,-0.0208 0.68805,-0.0138 z m -7.3651,8.781 c 0.0321,0.002 0.15971,0.17347 0.28398,0.37989 0.12427,0.20641 0.33318,0.51583 0.4637,0.68805 0.13052,0.1718 0.41325,0.4954 0.62842,0.71849 0.21517,0.2231 0.49206,0.4833 0.61508,0.57838 0.12301,0.0951 0.22392,0.18473 0.22392,0.19891 0,0.0146 -0.20182,0.0993 -0.44827,0.18807 -0.24645,0.0888 -0.64344,0.24519 -0.88238,0.34694 -0.23852,0.10175 -0.65386,0.29565 -0.9228,0.43034 -0.26896,0.13469 -0.65552,0.3432 -0.8586,0.46287 -0.2035,0.11968 -0.55752,0.3432 -0.7869,0.49665 -0.22935,0.15387 -0.58588,0.41075 -0.7923,0.57087 -0.20641,0.15971 -0.5788,0.47496 -0.82777,0.70014 -0.24854,0.2256 -0.63051,0.6084 -0.84863,0.8511 -0.21809,0.2427 -0.55336,0.64927 -0.74518,0.90405 -0.19182,0.25437 -0.48747,0.68597 -0.6576,0.95955 -0.16972,0.27314 -0.42492,0.7285 -0.56712,1.0125 -0.1422,0.28356 -0.33986,0.71474 -0.43869,0.95865 -0.0992,0.24353 -0.2577,0.68222 -0.35236,0.97493 -0.0947,0.29273 -0.22769,0.7602 -0.29565,1.0388 -0.068,0.27855 -0.16138,0.71473 -0.20684,0.96907 -0.0459,0.25437 -0.11217,0.70014 -0.14761,0.99083 -0.0354,0.29023 -0.0801,0.9003 -0.0997,1.3552 -0.0192,0.45453 -0.0204,0.9366 -0.002,1.0705 0.0179,0.13386 0.0817,0.34277 0.14136,0.46454 0.078,0.15971 0.26688,0.3753 0.68138,0.77812 0.31525,0.3065 0.79814,0.74477 1.0729,0.97455 0.2748,0.22935 0.67805,0.55086 0.89573,0.7139 0.21809,0.16305 0.62133,0.44619 0.89655,0.62926 0.27522,0.18306 0.71182,0.45744 0.97035,0.61007 0.25812,0.15262 0.76687,0.42617 1.1305,0.6084 0.36321,0.18181 0.90781,0.43493 1.2101,0.56211 0.30233,0.12719 0.84652,0.3336 1.2093,0.45787 0.36279,0.12468 0.90157,0.29273 1.1972,0.37322 0.29565,0.0805 0.75353,0.1939 1.0171,0.25186 0.26396,0.0575 0.70473,0.14261 0.97995,0.1889 0.27522,0.0463 0.74434,0.11259 1.0425,0.14721 0.29815,0.0342 0.94035,0.0834 1.4274,0.10884 0.65594,0.0346 1.1209,0.0342 1.7923,-10e-4 0.49872,-0.0259 1.201,-0.0838 1.5604,-0.12844 0.35945,-0.0446 0.91364,-0.12885 1.231,-0.18723 0.31775,-0.0584 0.8778,-0.18139 1.2448,-0.27313 0.36696,-0.0922 1.0238,-0.2869 1.46,-0.43326 0.43576,-0.14595 1.0825,-0.38948 1.4366,-0.54085 0.35445,-0.15137 0.94529,-0.43117 1.3131,-0.62175 0.36822,-0.19099 0.89445,-0.48289 1.1697,-0.64927 0.27522,-0.16638 0.75352,-0.47871 1.0634,-0.69347 0.30983,-0.21475 0.7869,-0.57004 1.0604,-0.789 0.27355,-0.21934 0.73559,-0.61382 1.0275,-0.87735 0.29149,-0.26354 0.64718,-0.60465 0.79065,-0.75772 0.14345,-0.15346 0.30983,-0.38322 0.36946,-0.51083 l 0.10884,-0.23185 -0.003,-0.9174 c -0.002,-0.58672 -0.0296,-1.135 -0.0759,-1.5216 -0.0396,-0.33235 -0.10925,-0.82028 -0.15512,-1.0842 -0.0455,-0.26397 -0.13719,-0.70724 -0.20349,-0.98498 -0.0659,-0.27772 -0.1985,-0.74685 -0.29441,-1.0425 -0.0959,-0.29565 -0.24853,-0.72516 -0.33944,-0.95452 -0.0909,-0.22935 -0.27521,-0.64218 -0.40991,-0.9174 -0.13469,-0.27522 -0.35611,-0.68805 -0.49206,-0.9174 -0.13635,-0.22935 -0.39907,-0.62884 -0.58463,-0.88778 -0.18514,-0.25896 -0.4758,-0.63426 -0.64552,-0.834 -0.16971,-0.19974 -0.47496,-0.53293 -0.67887,-0.74059 -0.20391,-0.20725 -0.53877,-0.52292 -0.74393,-0.7014 -0.20516,-0.17805 -0.55253,-0.45828 -0.77145,-0.62216 -0.21892,-0.16388 -0.62508,-0.44327 -0.9024,-0.6205 -0.2773,-0.17722 -0.77438,-0.46287 -1.105,-0.63467 -0.33027,-0.17222 -0.8073,-0.40115 -1.0596,-0.50874 -0.25229,-0.108 -0.68013,-0.2748 -0.95033,-0.3703 l -0.49164,-0.17388 0.39406,-0.34152 c 0.21643,-0.18807 0.50541,-0.4683 0.64177,-0.62259 0.13594,-0.15471 0.3532,-0.41866 0.48247,-0.58671 0.12885,-0.16764 0.33193,-0.46788 0.45077,-0.6672 0.11885,-0.19891 0.22101,-0.3678 0.22685,-0.3753 0.006,-0.008 0.40158,0.0455 0.87945,0.11759 0.47747,0.0725 1.2723,0.20641 1.7652,0.29732 0.49332,0.0909 1.2814,0.25062 1.7514,0.35445 0.47038,0.10383 1.221,0.28231 1.668,0.39657 0.44745,0.11426 1.0759,0.28314 1.397,0.37488 0.32109,0.0922 0.9741,0.2894 1.4512,0.43911 0.47704,0.14928 1.1997,0.38989 1.6054,0.53459 0.40615,0.14469 1.0104,0.36612 1.3427,0.49289 0.33277,0.12635 0.88613,0.34611 1.2302,0.48789 0.34403,0.1422 0.94448,0.39907 1.3344,0.57129 0.3899,0.17222 1.2344,0.57212 1.8765,0.8886 0.64218,0.31692 1.5338,0.77685 1.9808,1.0225 0.44745,0.24603 1.2356,0.70014 1.7514,1.01 0.51625,0.30984 1.351,0.83528 1.8556,1.168 0.50457,0.33277 1.1705,0.78435 1.4804,1.0033 0.30983,0.21934 0.86318,0.62425 1.2302,0.89985 0.36696,0.27564 0.95828,0.73517 1.3136,1.0208 0.35571,0.28564 0.89033,0.72724 1.188,0.98159 0.29816,0.25437 0.82358,0.71558 1.1676,1.025 0.34445,0.309 1.0642,0.99413 1.6004,1.522 0.53584,0.52751 1.2702,1.2785 1.6313,1.6684 0.36155,0.3899 0.91785,1.0091 1.236,1.3761 0.31859,0.36696 0.81525,0.95782 1.1038,1.3135 0.28856,0.35529 0.75937,0.95618 1.0454,1.3344 0.28648,0.37822 0.71516,0.95993 0.95288,1.2919 0.23769,0.33235 0.71683,1.0358 1.065,1.5638 0.34777,0.52793 0.85357,1.3256 1.1234,1.7731 0.2698,0.44703 0.70556,1.1976 0.96825,1.668 0.26271,0.46996 0.76523,1.4366 1.1171,2.1476 0.35194,0.71099 0.789,1.6317 0.97162,2.0458 0.18223,0.41408 0.48622,1.1363 0.67512,1.6054 0.1889,0.4687 0.46121,1.1714 0.60465,1.5613 0.14345,0.3899 0.42117,1.1968 0.61674,1.7931 0.19599,0.59631 0.46246,1.4595 0.59298,1.9182 0.1301,0.4587 0.3557,1.3219 0.50165,1.9182 0.14553,0.59632 0.34903,1.497 0.45203,2.0016 0.103,0.50457 0.25354,1.3207 0.33485,1.814 0.0813,0.4929 0.19432,1.2435 0.25145,1.668 0.0567,0.42409 0.14136,1.1372 0.18807,1.5846 0.0463,0.44703 0.11259,1.1976 0.14761,1.668 0.0346,0.46996 0.0847,1.5095 0.11135,2.3093 0.0371,1.1092 0.0371,1.8164 -4.2e-4,2.9816 -0.0271,0.83985 -0.0863,1.9962 -0.13178,2.5696 -0.045,0.57338 -0.11134,1.3052 -0.14678,1.6263 -0.0355,0.32109 -0.11134,0.94035 -0.16889,1.3761 -0.0575,0.43577 -0.17013,1.1864 -0.25061,1.668 -0.0805,0.48164 -0.22185,1.251 -0.314,1.7097 -0.0926,0.4587 -0.24269,1.1522 -0.3336,1.5412 -0.0909,0.38906 -0.17139,0.71349 -0.1789,0.72057 -0.007,0.007 -0.0659,-0.058 -0.13051,-0.14427 -0.0646,-0.0867 -0.29733,-0.34278 -0.51667,-0.5688 -0.21934,-0.22601 -0.53042,-0.51832 -0.69097,-0.65009 -0.16054,-0.13136 -0.45036,-0.3457 -0.64384,-0.47581 -0.19391,-0.12968 -0.55044,-0.33693 -0.7923,-0.46036 -0.24228,-0.12344 -0.61841,-0.29024 -0.83648,-0.37155 -0.21767,-0.0809 -0.55544,-0.18765 -0.7506,-0.23769 -0.19474,-0.0496 -0.50457,-0.11843 -0.68805,-0.15262 -0.18348,-0.0346 -0.66177,-0.0721 -1.0634,-0.0842 -0.53793,-0.0158 -0.86107,-0.005 -1.2302,0.0446 -0.27522,0.0367 -0.69305,0.11343 -0.92827,0.17097 -0.23519,0.0571 -0.61049,0.17223 -0.834,0.25563 -0.22351,0.0838 -0.60298,0.25061 -0.84398,0.37154 -0.2406,0.12093 -0.60673,0.33068 -0.81315,0.46663 -0.20641,0.13593 -0.5471,0.39156 -0.75727,0.56753 -0.21017,0.17639 -0.50832,0.45661 -0.66219,0.62258 -0.15429,0.16638 -0.39198,0.44828 -0.52793,0.62675 -0.13594,0.17848 -0.34319,0.47872 -0.46036,0.6672 -0.11718,0.18849 -0.30275,0.53043 -0.41242,0.75975 -0.10967,0.22935 -0.27397,0.64218 -0.36571,0.9174 -0.0917,0.27523 -0.20433,0.68805 -0.2502,0.9174 -0.0463,0.22936 -0.10591,0.63259 -0.13261,0.89656 -0.028,0.27563 -0.0375,0.71015 -0.0233,1.0221 0.0137,0.29815 0.0542,0.71098 0.0892,0.91739 0.0355,0.206 0.10299,0.525 0.1497,0.70848 0.0467,0.18348 0.1326,0.47413 0.19057,0.64635 0.058,0.17181 0.22434,0.5567 0.36946,0.85486 0.14512,0.29815 0.37072,0.70139 0.50123,0.89654 0.13052,0.19474 0.34319,0.48498 0.47246,0.64427 0.12886,0.15929 0.39699,0.45119 0.59548,0.64885 0.19808,0.19766 0.4562,0.43243 0.57296,0.52167 0.11717,0.0892 0.19891,0.17472 0.18181,0.19015 -0.0171,0.0154 -0.10634,0.0517 -0.19807,0.0801 -0.0917,0.0283 -0.44828,0.16472 -0.7923,0.30275 -0.34403,0.13802 -0.88321,0.37947 -1.1984,0.53709 -0.31526,0.15763 -0.7752,0.40616 -1.0216,0.55294 -0.24687,0.14679 -0.65428,0.41117 -0.9057,0.58714 -0.25145,0.17639 -0.60798,0.44452 -0.7923,0.59631 -0.18431,0.15137 -0.50415,0.43034 -0.71057,0.61883 -0.20641,0.1889 -0.55335,0.54335 -0.77145,0.7869 -0.21767,0.24394 -0.53292,0.6255 -0.70056,0.8478 -0.16722,0.22184 -0.44744,0.628 -0.62175,0.9024 -0.17472,0.27438 -0.44535,0.75015 -0.60131,1.058 -0.15637,0.30774 -0.37655,0.7965 -0.48997,1.0863 -0.11301,0.28939 -0.27439,0.74184 -0.35904,1.005 -0.0842,0.26354 -0.20641,0.70473 -0.27147,0.97995 -0.0655,0.27563 -0.14761,0.66052 -0.18264,0.85567 -0.035,0.19474 -0.0926,0.57004 -0.12719,0.834 -0.0346,0.26354 -0.0826,0.73184 -0.10591,1.0404 -0.0238,0.30858 -0.043,0.80145 -0.043,1.0954 0,0.42576 0.0166,0.58297 0.0821,0.76898 0.0455,0.12885 0.14929,0.32067 0.23102,0.42658 0.0817,0.1055 0.38739,0.41492 0.67887,0.68681 0.29149,0.27229 0.83648,0.741 1.211,1.0417 l 0.68138,0.54669 -0.11843,0.0976 c -0.0647,0.0534 -0.58714,0.45078 -1.1606,0.88237 -0.57337,0.43202 -1.3894,1.0238 -1.814,1.3148 -0.42451,0.29106 -1.0971,0.736 -1.495,0.98872 -0.39782,0.25271 -1.0713,0.66512 -1.497,0.91658 -0.42534,0.25145 -1.0658,0.61841 -1.424,0.81525 -0.35779,0.19682 -1.0634,0.5667 -1.568,0.82192 -0.50457,0.2552 -1.2297,0.60923 -1.6117,0.78645 -0.38198,0.17723 -1.0388,0.46955 -1.4595,0.64969 -0.42075,0.18014 -1.178,0.48748 -1.6826,0.68305 -0.50457,0.19515 -1.2823,0.48163 -1.7281,0.63592 -0.44619,0.15471 -1.0746,0.36446 -1.397,0.46621 -0.32235,0.10174 -0.9345,0.28522 -1.3603,0.40783 -0.42575,0.12259 -1.1551,0.31941 -1.6213,0.43785 -0.46621,0.11842 -1.2727,0.3069 -1.7926,0.41908 -0.52,0.11175 -1.367,0.27814 -1.8815,0.36946 -0.51499,0.0909 -1.274,0.21392 -1.6868,0.27272 -0.41283,0.0588 -0.98497,0.13511 -1.2718,0.16972 -0.28648,0.0346 -0.80272,0.0905 -1.1468,0.12385 -0.34402,0.0337 -0.88822,0.0809 -1.2093,0.10467 -0.32109,0.0238 -0.9495,0.0621 -1.397,0.0855 -0.44702,0.0238 -1.5916,0.0425 -2.5437,0.0425 -1.0504,0 -2.1567,-0.0254 -2.8148,-0.0642 -0.59631,-0.035 -1.2998,-0.0822 -1.5638,-0.10509 -0.26354,-0.0225 -0.67637,-0.0609 -0.9174,-0.0851 -0.24061,-0.0238 -0.73809,-0.0805 -1.105,-0.12593 -0.36696,-0.0455 -0.97665,-0.12886 -1.3552,-0.18599 -0.37822,-0.0567 -0.95992,-0.15137 -1.2927,-0.20975 -0.33235,-0.0584 -0.9612,-0.17889 -1.397,-0.26729 -0.43576,-0.0888 -1.1184,-0.23728 -1.5175,-0.33027 -0.39866,-0.0926 -1.0804,-0.26355 -1.5149,-0.37947 -0.43493,-0.11592 -1.1906,-0.33152 -1.6797,-0.47955 -0.48914,-0.14804 -1.243,-0.38948 -1.6751,-0.53668 -0.4316,-0.1472 -0.99165,-0.34277 -1.2439,-0.43451 -0.25228,-0.0917 -0.76815,-0.28857 -1.1468,-0.4366 -0.37822,-0.14846 -1.0821,-0.43952 -1.5638,-0.64677 -0.48163,-0.20725 -1.2922,-0.57587 -1.801,-0.819 -0.50916,-0.24311 -1.306,-0.64135 -1.771,-0.88448 -0.46496,-0.24352 -1.0617,-0.56461 -1.3264,-0.71432 -0.26438,-0.1497 -0.75308,-0.43243 -1.0855,-0.62883 -0.33235,-0.19599 -0.88612,-0.53335 -1.2302,-0.74935 -0.34402,-0.216 -0.99495,-0.6426 -1.4466,-0.94785 -0.45161,-0.30483 -1.1614,-0.80438 -1.5766,-1.1092 -0.41575,-0.30525 -0.97372,-0.72475 -1.2401,-0.9324 -0.26646,-0.20767 -0.48956,-0.39615 -0.4954,-0.41826 -0.006,-0.0221 0.14261,-0.15637 0.33026,-0.29773 0.18807,-0.14137 0.52917,-0.41325 0.75773,-0.60465 0.22893,-0.19099 0.65218,-0.57588 0.94072,-0.85568 0.31109,-0.30108 0.56879,-0.58964 0.63259,-0.7089 0.0596,-0.11009 0.13135,-0.31317 0.15929,-0.45078 0.0359,-0.17514 0.0429,-0.45078 0.0229,-0.9174 -0.0159,-0.36696 -0.0559,-0.93952 -0.0897,-1.2718 -0.0338,-0.33276 -0.108,-0.87697 -0.16555,-1.2093 -0.0575,-0.33276 -0.16888,-0.85815 -0.24769,-1.1676 -0.0788,-0.30983 -0.22601,-0.80692 -0.32651,-1.105 -0.10092,-0.29815 -0.26355,-0.72975 -0.36113,-0.9591 -0.098,-0.22935 -0.25937,-0.57963 -0.35904,-0.77812 -0.0992,-0.19849 -0.27814,-0.52709 -0.3974,-0.72975 -0.11885,-0.20266 -0.34403,-0.55628 -0.49957,-0.78563 -0.15595,-0.22935 -0.41032,-0.57671 -0.56545,-0.77145 -0.15555,-0.19515 -0.5175,-0.59589 -0.8052,-0.8907 -0.28731,-0.29481 -0.69139,-0.68095 -0.89783,-0.85815 -0.20641,-0.17681 -0.55336,-0.45537 -0.77145,-0.618 -0.21767,-0.16304 -0.64009,-0.4491 -0.93825,-0.63633 -0.29815,-0.18682 -0.89865,-0.515 -1.3344,-0.72934 -0.43576,-0.21392 -1.0642,-0.49122 -1.397,-0.61591 -0.33235,-0.1251 -0.64218,-0.24061 -0.68805,-0.25687 l -0.0834,-0.0296 0.1668,-0.13094 c 0.0917,-0.0717 0.34236,-0.30024 0.5567,-0.50749 0.21433,-0.20725 0.50373,-0.51791 0.64301,-0.68972 0.13927,-0.17222 0.36445,-0.48163 0.5004,-0.68805 0.13636,-0.20641 0.34777,-0.5742 0.46996,-0.81735 0.12218,-0.24311 0.28939,-0.63509 0.37155,-0.87067 0.0821,-0.23602 0.18514,-0.5717 0.22935,-0.74643 0.0442,-0.17472 0.1105,-0.52292 0.1472,-0.77355 0.0404,-0.27314 0.0671,-0.72683 0.0667,-1.1309 0,-0.40115 -0.0271,-0.8565 -0.0667,-1.123 -0.0367,-0.24644 -0.11134,-0.6205 -0.16597,-0.83108 -0.0546,-0.21016 -0.16513,-0.56461 -0.24561,-0.7869 -0.0805,-0.22226 -0.25103,-0.60882 -0.37905,-0.85905 -0.12802,-0.2502 -0.33735,-0.61173 -0.46537,-0.8031 -0.12802,-0.19182 -0.33318,-0.47205 -0.4562,-0.623 -0.12301,-0.15053 -0.36946,-0.42034 -0.54793,-0.59923 -0.17848,-0.17889 -0.4562,-0.43284 -0.61674,-0.56461 -0.16097,-0.13178 -0.45162,-0.34653 -0.64635,-0.47747 -0.19474,-0.13052 -0.59798,-0.3582 -0.8961,-0.50541 -0.29816,-0.14678 -0.74393,-0.33276 -0.99038,-0.41324 -0.24645,-0.0801 -0.63133,-0.18265 -0.85485,-0.22768 -0.22351,-0.0455 -0.56545,-0.10217 -0.75975,-0.12594 -0.19432,-0.0242 -0.60715,-0.0433 -0.9174,-0.043 -0.31024,4.2e-4 -0.76102,0.0275 -1.0021,0.0596 -0.24061,0.0325 -0.59715,0.0967 -0.7923,0.14262 -0.19474,0.0463 -0.55128,0.1522 -0.7923,0.23602 -0.24061,0.0838 -0.64052,0.25354 -0.88823,0.37739 -0.24769,0.12342 -0.58546,0.31191 -0.7506,0.41825 -0.16513,0.10675 -0.45703,0.31608 -0.64885,0.46537 -0.1914,0.14928 -0.50291,0.42367 -0.69139,0.60965 -0.18848,0.18598 -0.4391,0.45537 -0.5567,0.59881 l -0.21392,0.26105 -0.0467,-0.17306 c -0.0254,-0.0951 -0.10925,-0.44703 -0.18599,-0.78232 -0.0767,-0.33485 -0.21558,-0.99375 -0.309,-1.4637 -0.0934,-0.47038 -0.22518,-1.1926 -0.29356,-1.6054 -0.068,-0.41283 -0.17097,-1.098 -0.22852,-1.522 -0.0576,-0.42451 -0.13261,-1.025 -0.16722,-1.3344 -0.0342,-0.30983 -0.0905,-0.89153 -0.1251,-1.2927 -0.0346,-0.40157 -0.0867,-1.0772 -0.11509,-1.5012 -0.0317,-0.46662 -0.0525,-1.661 -0.0525,-3.0232 -4.1e-4,-1.3615 0.0204,-2.5566 0.0517,-3.0232 0.0288,-0.42451 0.0805,-1.1092 0.11509,-1.522 0.035,-0.41283 0.11051,-1.1542 0.16805,-1.6472 0.0575,-0.49331 0.17055,-1.3282 0.25146,-1.8556 0.0809,-0.52751 0.21225,-1.3064 0.2919,-1.7306 0.0796,-0.42451 0.22935,-1.1564 0.33318,-1.6263 0.10341,-0.47038 0.28189,-1.221 0.39657,-1.668 0.11467,-0.44744 0.32859,-1.226 0.47496,-1.7306 0.14637,-0.50457 0.39865,-1.3144 0.56003,-1.7993 0.16138,-0.48497 0.41449,-1.2093 0.56212,-1.61 0.14761,-0.40074 0.427,-1.12 0.62133,-1.5992 0.1939,-0.47913 0.50707,-1.2181 0.69597,-1.6426 0.1889,-0.42451 0.5838,-1.2593 0.87735,-1.8556 0.29398,-0.59631 0.73475,-1.4504 0.97912,-1.8974 0.24478,-0.44744 0.71558,-1.2668 1.0467,-1.8211 0.33068,-0.55461 0.89783,-1.4553 1.2602,-2.0016 0.36237,-0.54669 0.83445,-1.2376 1.0484,-1.5358 0.21434,-0.29816 0.58714,-0.80483 0.82815,-1.1259 0.24144,-0.32109 0.66386,-0.86528 0.93908,-1.2093 0.27522,-0.34403 0.69305,-0.85238 0.92827,-1.1296 0.23561,-0.27731 0.61007,-0.7089 0.8319,-0.9591 0.22184,-0.2502 0.7806,-0.85485 1.2418,-1.3436 0.46121,-0.48872 1.2518,-1.279 1.7572,-1.7564 0.50499,-0.47746 1.1813,-1.1 1.5025,-1.384 0.32151,-0.28398 0.80025,-0.69597 1.0634,-0.9153 0.26354,-0.21975 0.75142,-0.61549 1.0838,-0.8799 0.33276,-0.26396 0.93322,-0.72432 1.3344,-1.0225 0.40157,-0.29816 1.03,-0.74977 1.397,-1.0033 0.36696,-0.25395 1.0145,-0.68513 1.4386,-0.95827 0.4245,-0.27314 1.0717,-0.67679 1.4386,-0.897 0.36696,-0.22018 1.0425,-0.60965 1.5012,-0.86573 0.4587,-0.25603 1.3878,-0.74142 2.0642,-1.0784 0.67637,-0.33693 1.6054,-0.77895 2.0642,-0.9816 0.4587,-0.20307 1.2656,-0.54252 1.7931,-0.7548 0.5275,-0.21183 1.4191,-0.54918 1.9808,-0.74893 0.56211,-0.19974 1.444,-0.49373 1.9599,-0.65344 0.51624,-0.15929 1.3106,-0.39156 1.7656,-0.51583 0.45495,-0.12426 1.2334,-0.32234 1.7306,-0.43951 0.49665,-0.11718 1.3632,-0.30441 1.9249,-0.41575 0.56211,-0.11176 1.444,-0.26854 1.9599,-0.34945 0.51624,-0.0805 0.99457,-0.15429 1.0634,-0.16346 0.0688,-0.01 0.15095,-0.015 0.18264,-0.0125 z m 7.24,4.6821 c 0.11468,0.007 0.40575,0.0329 0.64636,0.058 0.24102,0.0246 0.70472,0.0901 1.0312,0.14512 0.32609,0.0546 0.85814,0.16638 1.1818,0.24769 0.32401,0.0817 0.8373,0.23144 1.1409,0.33277 0.30358,0.10133 0.77565,0.28022 1.0492,0.3974 0.27314,0.11718 0.6939,0.31692 0.9345,0.44369 0.24103,0.12676 0.67263,0.38698 0.9591,0.57837 0.2869,0.1914 0.67179,0.46913 0.85568,0.61758 0.18431,0.14846 0.52042,0.45496 0.74685,0.68097 0.22643,0.22601 0.54752,0.58005 0.71307,0.78645 0.16597,0.20641 0.417,0.5521 0.55836,0.76815 0.14137,0.21642 0.34153,0.54835 0.44494,0.73809 0.10341,0.18973 0.26355,0.51833 0.3557,0.731 0.0922,0.21225 0.24186,0.60256 0.33319,0.86738 0.0913,0.26479 0.22267,0.70515 0.29148,0.97829 0.0692,0.27314 0.17097,0.78938 0.22601,1.1468 0.055,0.35779 0.12052,0.91283 0.14512,1.2339 l 0.0446,0.5838 -0.30399,0.28482 c -0.1668,0.15637 -0.54752,0.48205 -0.8457,0.72349 -0.29815,0.24144 -0.83272,0.63218 -1.1884,0.86858 -0.35528,0.23602 -0.85275,0.54752 -1.105,0.6918 -0.25228,0.14386 -0.72141,0.38739 -1.0425,0.54043 -0.32109,0.15304 -0.85567,0.38239 -1.1884,0.50999 -0.33235,0.12761 -0.82522,0.29899 -1.0946,0.38031 -0.2698,0.0817 -0.67304,0.19473 -0.89655,0.25145 -0.22352,0.0567 -0.66929,0.15054 -0.99038,0.2085 -0.32109,0.0584 -0.79935,0.13594 -1.0634,0.17222 -0.30232,0.0421 -0.93577,0.0751 -1.7151,0.0892 -0.78435,0.0142 -1.4391,0.005 -1.7931,-0.0263 -0.30649,-0.0267 -0.75435,-0.0767 -0.9954,-0.11133 -0.24061,-0.0346 -0.71932,-0.11968 -1.0634,-0.18932 -0.34402,-0.07 -0.91612,-0.211 -1.2718,-0.314 -0.35528,-0.10259 -0.89947,-0.28147 -1.2093,-0.39698 -0.2985,-0.11475 -0.77925,-0.31125 -1.0568,-0.43575 -0.2775,-0.12525 -0.765,-0.36825 -1.0845,-0.54225 -0.31875,-0.1725 -0.87,-0.507 -1.2255,-0.74175 -0.3555,-0.23475 -0.83925,-0.57675 -1.074,-0.7605 -0.2355,-0.18375 -0.64425,-0.52575 -0.909,-0.7605 l -0.48121,-0.4266 0.025,-0.36195 c 0.0138,-0.19891 0.0534,-0.61508 0.0876,-0.9249 0.0346,-0.30984 0.10925,-0.79523 0.16596,-1.0796 0.0567,-0.28398 0.15846,-0.71557 0.22602,-0.9591 0.068,-0.24394 0.17805,-0.59297 0.24561,-0.77647 0.0671,-0.18306 0.19056,-0.4929 0.27396,-0.68763 0.0838,-0.19516 0.23352,-0.50791 0.33318,-0.69514 0.0997,-0.18765 0.30024,-0.52542 0.44577,-0.7506 0.14553,-0.22518 0.41033,-0.59256 0.58797,-0.81608 0.17765,-0.22309 0.50583,-0.58713 0.72975,-0.80812 0.22352,-0.22101 0.5567,-0.52291 0.74018,-0.67095 0.18348,-0.14804 0.56837,-0.42576 0.85485,-0.61716 0.2869,-0.1914 0.756,-0.46829 1.0425,-0.6155 0.2869,-0.1472 0.73267,-0.35611 0.99082,-0.46412 0.25812,-0.108 0.69806,-0.27147 0.9783,-0.36321 0.27981,-0.0917 0.7677,-0.23226 1.0846,-0.31192 0.31692,-0.0797 0.84315,-0.19015 1.1692,-0.24477 0.32652,-0.055 0.78105,-0.1201 1.0104,-0.1447 0.22935,-0.0246 0.49206,-0.0505 0.5838,-0.058 0.0917,-0.008 0.26063,-0.008 0.3753,-4.2e-4 z m -44.932,59.942 c 0.12636,-0.003 0.39824,0.0137 0.60465,0.0375 0.20642,0.0233 0.55378,0.0897 0.77146,0.1472 0.21809,0.0575 0.58839,0.19682 0.82312,0.309 0.23519,0.11217 0.56795,0.30107 0.73975,0.41992 0.17223,0.11884 0.4512,0.35028 0.62008,0.51374 0.16889,0.16346 0.41825,0.44828 0.55378,0.63259 0.13595,0.18432 0.32609,0.48706 0.42283,0.67304 0.0967,0.18557 0.23269,0.51166 0.30191,0.72391 0.0696,0.21267 0.15387,0.55711 0.18807,0.7656 0.0338,0.20892 0.0613,0.57629 0.0613,0.81735 0,0.24103 -0.0275,0.6084 -0.0613,0.81735 -0.0342,0.2085 -0.11843,0.55294 -0.18807,0.7656 -0.0692,0.21225 -0.20516,0.53834 -0.30191,0.72391 -0.0967,0.18598 -0.28689,0.48872 -0.42283,0.67304 -0.13553,0.18431 -0.38489,0.46912 -0.55378,0.63259 -0.16888,0.16346 -0.44327,0.39156 -0.60924,0.50623 -0.16597,0.11468 -0.45244,0.28439 -0.63592,0.37697 -0.1839,0.093 -0.47455,0.21559 -0.64635,0.27272 -0.17181,0.0571 -0.4537,0.13302 -0.62676,0.16846 -0.17263,0.0355 -0.49164,0.0763 -0.7089,0.0913 -0.22643,0.0158 -0.56337,0.007 -0.79065,-0.0208 -0.21767,-0.0263 -0.51791,-0.0776 -0.6672,-0.11342 -0.14886,-0.0363 -0.46161,-0.1397 -0.6943,-0.22977 -0.26313,-0.10175 -0.59381,-0.27605 -0.87323,-0.46079 -0.26562,-0.17514 -0.59631,-0.44368 -0.80775,-0.65511 -0.19682,-0.19682 -0.46537,-0.51957 -0.59673,-0.71724 -0.13135,-0.19765 -0.31275,-0.51666 -0.40282,-0.70931 -0.0905,-0.19224 -0.21101,-0.51124 -0.26813,-0.70807 -0.0571,-0.19682 -0.12636,-0.51374 -0.15429,-0.70347 -0.0313,-0.21435 -0.0417,-0.56921 -0.0279,-0.9345 0.0171,-0.44035 0.0496,-0.69222 0.12885,-0.99788 0.0588,-0.22518 0.17222,-0.56128 0.2527,-0.74684 0.0801,-0.18557 0.23394,-0.48372 0.34194,-0.6622 0.108,-0.17848 0.32276,-0.47287 0.47705,-0.65427 0.15429,-0.18098 0.43076,-0.44953 0.61424,-0.59631 0.1839,-0.1472 0.48122,-0.35362 0.66137,-0.45954 0.18014,-0.10549 0.46829,-0.24936 0.64009,-0.31984 0.17222,-0.07 0.46829,-0.16721 0.65844,-0.21558 0.18974,-0.0484 0.4808,-0.10383 0.64635,-0.12302 0.16514,-0.0192 0.40407,-0.0375 0.53001,-0.0401 z m 89.692,0.0179 c 0.2598,0.0104 0.61633,0.0479 0.79231,0.0842 0.17556,0.0358 0.46037,0.11176 0.63217,0.1693 0.17222,0.0572 0.45828,0.17681 0.63634,0.26563 0.17806,0.0888 0.46871,0.26104 0.64593,0.38281 0.17723,0.12135 0.48247,0.3803 0.67805,0.57546 0.19599,0.19473 0.4612,0.51374 0.59005,0.7089 0.12885,0.19473 0.29315,0.47204 0.36529,0.61632 0.0717,0.14387 0.18557,0.42534 0.25271,0.62551 0.0671,0.20015 0.15095,0.53042 0.1864,0.73433 0.0355,0.20349 0.0646,0.59005 0.0646,0.85942 0,0.26939 -0.0292,0.65594 -0.0646,0.85943 -0.0355,0.20391 -0.11927,0.53417 -0.1864,0.73433 -0.0671,0.20016 -0.18099,0.48163 -0.25271,0.6255 -0.0721,0.14428 -0.23435,0.41825 -0.36028,0.60924 -0.12636,0.19099 -0.39198,0.50999 -0.59006,0.7089 -0.19807,0.19891 -0.50624,0.46162 -0.68471,0.58421 -0.1789,0.12218 -0.48831,0.30358 -0.68805,0.40241 -0.19975,0.0988 -0.5225,0.22768 -0.71766,0.28606 -0.19474,0.0584 -0.47621,0.12927 -0.6255,0.15763 -0.14887,0.0288 -0.53376,0.0525 -0.85485,0.0529 -0.40366,7.5e-4 -0.69305,-0.0221 -0.93825,-0.0734 -0.19474,-0.0409 -0.49498,-0.12134 -0.66678,-0.17846 -0.17181,-0.0575 -0.46246,-0.18015 -0.64635,-0.27314 -0.18348,-0.0926 -0.47372,-0.26479 -0.64427,-0.38239 -0.17055,-0.11801 -0.44452,-0.34569 -0.60881,-0.50624 -0.16472,-0.16054 -0.40992,-0.44285 -0.54586,-0.62717 -0.13594,-0.18431 -0.32567,-0.4858 -0.42158,-0.67053 -0.0959,-0.18431 -0.23019,-0.50249 -0.29858,-0.70724 -0.0679,-0.20474 -0.15304,-0.54084 -0.1889,-0.74726 -0.0358,-0.20642 -0.0655,-0.57546 -0.0655,-0.82065 0,-0.24478 0.02,-0.58963 0.0446,-0.76688 0.0246,-0.17681 0.0913,-0.48288 0.14762,-0.68054 0.0567,-0.19724 0.19474,-0.54794 0.30691,-0.77895 0.11218,-0.2306 0.32068,-0.57796 0.46329,-0.77145 0.14303,-0.19307 0.38447,-0.47455 0.53626,-0.62467 0.1522,-0.15012 0.39823,-0.35987 0.54711,-0.46578 0.14886,-0.10634 0.3828,-0.25646 0.51957,-0.33402 0.1372,-0.0776 0.39032,-0.19933 0.56212,-0.27063 0.17222,-0.0717 0.46829,-0.16972 0.65844,-0.2181 0.18974,-0.0484 0.4808,-0.10508 0.64635,-0.12593 0.16514,-0.0208 0.51333,-0.0296 0.77355,-0.0192 z m -89.438,13.478 c 0.2181,0.0109 0.62133,0.0471 0.89656,0.0809 0.27522,0.0337 0.78607,0.11759 1.135,0.18639 0.34944,0.0684 0.90277,0.20016 1.2301,0.29274 0.32777,0.0926 0.849,0.26271 1.1585,0.3778 0.30983,0.11551 0.84442,0.3482 1.1884,0.51708 0.34402,0.16889 0.81735,0.42784 1.0513,0.57546 0.23435,0.14804 0.60632,0.40407 0.82605,0.56962 0.22018,0.16513 0.61674,0.50874 0.8811,0.76267 0.26437,0.25437 0.63259,0.65094 0.81855,0.88155 0.18557,0.23061 0.46621,0.61591 0.62342,0.85695 0.15679,0.24061 0.38572,0.63468 0.50831,0.8757 0.1226,0.24061 0.309,0.65344 0.41367,0.9174 0.10508,0.26355 0.2577,0.71307 0.33985,0.9987 0.0821,0.28565 0.19474,0.7456 0.25062,1.0216 0.0555,0.27648 0.12885,0.71808 0.16305,0.98205 0.0338,0.26355 0.0751,0.69139 0.0909,0.95033 l 0.0292,0.47121 -0.12051,0.1276 c -0.0667,0.07 -0.31692,0.29733 -0.55586,0.50457 -0.23936,0.20725 -0.68305,0.5617 -0.98618,0.78728 -0.30274,0.22559 -0.75435,0.53959 -1.0033,0.69722 -0.24895,0.15763 -0.69681,0.42034 -0.99495,0.5838 -0.29816,0.16305 -0.7881,0.40824 -1.0892,0.54419 -0.30066,0.13635 -0.80107,0.34236 -1.1122,0.45786 -0.31067,0.11593 -0.834,0.28857 -1.1626,0.38406 -0.32859,0.0951 -0.90367,0.2356 -1.2777,0.31233 -0.37447,0.0763 -0.99367,0.1814 -1.3761,0.2331 -0.60799,0.0826 -0.87525,0.0942 -2.1138,0.0942 -1.2427,0 -1.5054,-0.0117 -2.1267,-0.0955 -0.38989,-0.0521 -0.98077,-0.15136 -1.3136,-0.22059 -0.33234,-0.0688 -0.81105,-0.18097 -1.0634,-0.24937 -0.25228,-0.0684 -0.65511,-0.18973 -0.89572,-0.26979 -0.2402,-0.0801 -0.67637,-0.2402 -0.96908,-0.35529 -0.29273,-0.1155 -0.82815,-0.35653 -1.1893,-0.53626 -0.36154,-0.17931 -0.91028,-0.47955 -1.2202,-0.66761 -0.30941,-0.18765 -0.7506,-0.47414 -0.97995,-0.63677 -0.22935,-0.16304 -0.63259,-0.46912 -0.89655,-0.68054 -0.26354,-0.21142 -0.62508,-0.51958 -0.80272,-0.68429 l -0.32318,-0.29941 4.2e-4,-0.25688 c 4.2e-4,-0.14178 0.0279,-0.5154 0.0613,-0.83107 0.0334,-0.31567 0.0905,-0.74726 0.12676,-0.9591 0.0363,-0.21183 0.12176,-0.61424 0.18974,-0.89408 0.0684,-0.27981 0.20975,-0.75855 0.314,-1.0634 0.10425,-0.30524 0.30649,-0.79852 0.44994,-1.0967 0.14344,-0.29816 0.36946,-0.72016 0.50206,-0.9378 0.13302,-0.21809 0.37572,-0.57463 0.53919,-0.7923 0.16346,-0.21809 0.51333,-0.61925 0.77685,-0.89153 0.26396,-0.2723 0.66177,-0.64176 0.88402,-0.8202 0.22184,-0.17889 0.61591,-0.46495 0.8757,-0.63592 0.25937,-0.17097 0.66887,-0.41534 0.90945,-0.54294 0.24103,-0.12802 0.66303,-0.32901 0.93825,-0.4466 0.27522,-0.11802 0.78188,-0.309 1.1259,-0.42409 0.34403,-0.1151 0.89783,-0.27314 1.2302,-0.35112 0.33277,-0.078 0.82065,-0.17806 1.0842,-0.22226 0.26396,-0.0446 0.65803,-0.10092 0.8757,-0.1251 0.21809,-0.0246 0.46204,-0.0521 0.5421,-0.0609 0.0805,-0.009 0.32443,-0.008 0.5421,0.003 z m 89.468,-4.1e-4 c 0.22935,0.0112 0.62133,0.0471 0.87149,0.0796 0.24979,0.0326 0.62509,0.0884 0.83401,0.12427 0.2085,0.0358 0.64218,0.12802 0.9633,0.20516 0.32109,0.0767 0.86527,0.23311 1.2093,0.34695 0.34402,0.11426 0.85065,0.30441 1.1259,0.42284 0.27522,0.11842 0.69764,0.31942 0.93825,0.4466 0.24102,0.12719 0.64426,0.36696 0.89655,0.53252 0.25228,0.16596 0.64635,0.45244 0.8757,0.63759 0.22935,0.18473 0.633,0.55878 0.897,0.83107 0.26354,0.2723 0.6134,0.67346 0.77685,0.89153 0.16347,0.21767 0.40616,0.57421 0.53918,0.7923 0.13261,0.21767 0.35862,0.63967 0.50165,0.9378 0.14345,0.29815 0.33694,0.7644 0.43034,1.0363 0.0934,0.27147 0.21601,0.66554 0.27231,0.8757 0.0567,0.20976 0.14136,0.57838 0.18807,0.81938 0.0471,0.2406 0.113,0.64801 0.14636,0.90487 0.0337,0.25688 0.0738,0.68847 0.0892,0.9591 l 0.0275,0.49206 -0.29148,0.27522 c -0.16055,0.15138 -0.49623,0.44202 -0.74643,0.64635 -0.24979,0.20391 -0.67471,0.52751 -0.9441,0.71849 -0.26897,0.19099 -0.73809,0.49665 -1.042,0.6793 -0.30399,0.18264 -0.76815,0.4416 -1.0321,0.57588 -0.26354,0.13427 -0.69805,0.3386 -0.96532,0.45411 -0.26688,0.11592 -0.71724,0.2944 -1.0008,0.39698 -0.28314,0.10258 -0.7869,0.26271 -1.1197,0.35612 -0.33235,0.0934 -0.88612,0.22601 -1.2302,0.29482 -0.34402,0.0688 -0.91612,0.16388 -1.2718,0.21142 -0.42868,0.0572 -1.0041,0.0947 -1.7097,0.11092 -0.67387,0.0158 -1.2927,0.007 -1.6888,-0.0242 -0.34402,-0.0271 -0.88822,-0.0872 -1.2093,-0.13344 -0.32109,-0.0463 -0.80895,-0.13136 -1.0842,-0.18891 -0.27522,-0.0575 -0.77227,-0.18056 -1.105,-0.27271 -0.33235,-0.0922 -0.88612,-0.27188 -1.2302,-0.39866 -0.34402,-0.12718 -0.88822,-0.35111 -1.2093,-0.49789 -0.32109,-0.14637 -0.80895,-0.39073 -1.0842,-0.54252 -0.27522,-0.15138 -0.70431,-0.40449 -0.95325,-0.56212 -0.24895,-0.15762 -0.69931,-0.47037 -1.0008,-0.69514 -0.30148,-0.22476 -0.75435,-0.58797 -1.0066,-0.8073 -0.25228,-0.21892 -0.50374,-0.44744 -0.55878,-0.50707 l -0.10008,-0.10842 0.0283,-0.46621 c 0.0155,-0.25646 0.0559,-0.68388 0.0897,-0.94995 0.0342,-0.26563 0.10967,-0.71807 0.16805,-1.0046 0.0588,-0.2869 0.16221,-0.71599 0.23059,-0.9537 0.0679,-0.23769 0.19058,-0.61299 0.27189,-0.834 0.0817,-0.22101 0.27647,-0.66428 0.43326,-0.98535 0.1568,-0.32109 0.41742,-0.78645 0.58005,-1.0337 0.16221,-0.24728 0.40241,-0.58505 0.53376,-0.75059 0.13136,-0.16556 0.41784,-0.48581 0.63634,-0.71224 0.21851,-0.22602 0.55878,-0.54711 0.75645,-0.71307 0.19724,-0.16597 0.53501,-0.42409 0.7506,-0.5738 0.21517,-0.15012 0.60798,-0.39615 0.87278,-0.54752 0.26438,-0.15095 0.75225,-0.39531 1.0842,-0.54293 0.33151,-0.1472 0.8565,-0.35362 1.166,-0.45828 0.30983,-0.10467 0.77895,-0.24562 1.0425,-0.31275 0.26396,-0.0671 0.6672,-0.16055 0.89655,-0.20767 0.22935,-0.0467 0.62466,-0.1151 0.87817,-0.1522 0.25353,-0.0367 0.61966,-0.083 0.81315,-0.103 0.19349,-0.02 0.5396,-0.0267 0.76898,-0.0154 z m -44.828,-49.175 c -8.5778,-0.004 -15.706,0.01 -15.841,0.0296 -0.13428,0.0196 -0.42409,0.0834 -0.64385,0.1422 -0.22018,0.0584 -0.56962,0.17348 -0.7773,0.25563 -0.20767,0.0821 -0.51791,0.22559 -0.69013,0.31858 -0.17181,0.093 -0.48122,0.28314 -0.68722,0.42242 -0.206,0.1397 -0.56754,0.43994 -0.80355,0.66678 -0.23644,0.22727 -0.52959,0.54627 -0.65177,0.7089 -0.12219,0.16305 -0.30858,0.44619 -0.4145,0.62967 -0.1055,0.18348 -0.25603,0.50249 -0.33402,0.7089 -0.078,0.20642 -0.46787,1.6843 -0.86655,3.2839 -0.39865,1.5996 -0.73558,2.9086 -0.74935,2.9086 -0.0138,0 -0.0467,-0.0705 -0.073,-0.15637 -0.0263,-0.0859 -0.11885,-0.2502 -0.206,-0.36488 -0.0871,-0.11467 -0.26062,-0.2698 -0.38572,-0.34486 -0.1251,-0.0751 -0.29315,-0.1547 -0.37405,-0.1768 -0.0909,-0.0254 -1.8594,-0.0409 -4.6784,-0.0409 -3.8422,-4.1e-4 -4.577,0.009 -4.826,0.0613 -0.16138,0.0338 -0.40324,0.10633 -0.53751,0.16096 -0.13469,0.0546 -0.35445,0.16972 -0.48872,0.25563 -0.13427,0.0859 -0.35528,0.26187 -0.49123,0.39156 -0.13636,0.12927 -0.33026,0.3507 -0.43117,0.49206 -0.10092,0.14136 -0.24895,0.39781 -0.3286,0.57045 -0.0797,0.17264 -0.17597,0.4416 -0.21434,0.59798 -0.0438,0.18056 -0.0692,0.45995 -0.0692,0.76395 0,0.39615 0.0517,0.79943 0.29857,2.3206 0.1643,1.0129 0.33819,1.9699 0.38615,2.1267 0.0484,0.15721 0.16471,0.43577 0.25937,0.61925 0.12927,0.25103 0.2648,0.42742 0.54836,0.71307 0.22809,0.22977 0.49164,0.44702 0.66845,0.55002 0.16054,0.0938 0.44202,0.22351 0.6255,0.28773 l 0.3336,0.11718 2.5362,0.0208 2.5366,0.0208 -0.8874,0.8757 c -0.48789,0.48163 -0.98955,0.98827 -1.1146,1.1259 -0.12468,0.13761 -0.32526,0.40032 -0.44493,0.5838 -0.11968,0.18348 -0.2648,0.42742 -0.32235,0.5421 -0.0575,0.11467 -0.16305,0.37405 -0.23435,0.57588 -0.0713,0.20224 -0.16638,0.54919 -0.21184,0.77145 -0.055,0.27105 -0.20558,1.9474 -0.45786,5.0954 -0.20684,2.58 -0.38781,4.8414 -0.40199,5.0248 -0.0142,0.18348 -0.005,0.54418 0.0213,0.80145 0.0254,0.25729 0.0934,0.65135 0.15012,0.8757 0.0605,0.23894 0.19641,0.59798 0.3286,0.86655 0.12385,0.25228 0.31817,0.58046 0.43117,0.72975 0.11343,0.14887 0.36613,0.42117 0.56129,0.60465 0.19557,0.18348 0.51499,0.43285 0.70973,0.55378 0.19474,0.12134 0.51542,0.28606 0.71224,0.36612 0.19682,0.0805 0.49498,0.18098 0.66261,0.22351 l 0.30441,0.0772 0.0221,2.309 0.0225,2.3085 0.11008,0.35445 c 0.0605,0.19473 0.14887,0.44452 0.19641,0.55503 0.0471,0.11008 0.16763,0.32609 0.2673,0.47955 0.10008,0.15345 0.27147,0.37821 0.38114,0.49956 0.11008,0.12135 0.30649,0.30274 0.43701,0.40324 0.13053,0.10049 0.35779,0.24812 0.50541,0.32818 0.14761,0.0801 0.42784,0.19891 0.62258,0.26396 l 0.35445,0.11843 h 14.303 l 0.32526,-0.0942 c 0.17889,-0.0517 0.4416,-0.15304 0.5838,-0.22476 0.1422,-0.0717 0.36196,-0.20099 0.48789,-0.28773 0.12635,-0.0863 0.35362,-0.28564 0.50499,-0.44244 0.15178,-0.15679 0.33235,-0.36988 0.40115,-0.47287 0.0688,-0.103 0.19307,-0.32235 0.27605,-0.48706 0.0826,-0.16472 0.19224,-0.4366 0.24353,-0.60465 l 0.093,-0.30524 0.0142,-2.2831 0.0142,-2.2831 h 14.588 l 0.0137,2.2622 0.0134,2.2622 0.0763,0.27105 c 0.0421,0.14886 0.1472,0.4245 0.23394,0.61173 0.0872,0.18765 0.21976,0.4316 0.29523,0.5421 0.0755,0.11093 0.26021,0.33027 0.41074,0.48748 0.15054,0.15762 0.37698,0.35695 0.50291,0.44285 0.12635,0.0859 0.34569,0.21476 0.48789,0.28648 0.1422,0.0717 0.40491,0.17306 0.5838,0.22476 l 0.32526,0.0942 h 14.22 l 0.2919,-0.0788 c 0.16054,-0.0434 0.40824,-0.13095 0.55086,-0.19475 0.14219,-0.0638 0.36696,-0.18765 0.49956,-0.27563 0.13219,-0.088 0.35904,-0.27022 0.50332,-0.40574 0.1447,-0.13511 0.36488,-0.39866 0.48914,-0.58589 0.12469,-0.18682 0.28606,-0.47955 0.35862,-0.65052 0.0726,-0.17055 0.1668,-0.47955 0.20975,-0.68596 0.0692,-0.33652 0.0776,-0.59298 0.078,-2.4866 l 4.2e-4,-2.1112 0.80272,-0.0217 c 0.53418,-0.0142 0.87615,-0.0425 1.0225,-0.0847 0.12093,-0.035 0.33652,-0.11843 0.47955,-0.18598 0.14303,-0.0676 0.37613,-0.21058 0.51833,-0.31817 0.1422,-0.10759 0.34611,-0.31192 0.45287,-0.45411 0.10674,-0.1422 0.24978,-0.36863 0.31775,-0.50291 0.0676,-0.13427 0.15971,-0.38614 0.20391,-0.55961 0.0508,-0.19891 0.0805,-0.45578 0.0805,-0.69806 0,-0.211 -0.16888,-3.0178 -0.3753,-6.2379 -0.20641,-3.22 -0.39406,-5.9673 -0.41617,-6.1048 -0.0225,-0.13761 -0.078,-0.39115 -0.12301,-0.56295 -0.0455,-0.17222 -0.14011,-0.45245 -0.21059,-0.62342 -0.0705,-0.17097 -0.19431,-0.42909 -0.27522,-0.57379 -0.0809,-0.14511 -0.25812,-0.41033 -0.39364,-0.59047 -0.13553,-0.17973 -0.69764,-0.76935 -1.2494,-1.3102 l -1.0029,-0.9837 2.4503,-0.0159 c 2.1425,-0.0138 2.4844,-0.025 2.718,-0.0872 0.14679,-0.0388 0.41867,-0.14261 0.60465,-0.23018 0.18557,-0.088 0.45203,-0.24645 0.59214,-0.35278 0.14011,-0.10634 0.33944,-0.2919 0.44244,-0.41283 0.10299,-0.12093 0.25395,-0.32401 0.33527,-0.4512 0.0813,-0.12718 0.19474,-0.34319 0.25186,-0.47955 0.0575,-0.13635 0.12427,-0.32317 0.14887,-0.41491 0.0242,-0.0917 0.17723,-1.0021 0.33944,-2.0224 0.16221,-1.0208 0.30566,-1.9966 0.31901,-2.1684 0.0154,-0.20433 0,-0.44828 -0.0446,-0.70348 -0.0375,-0.21475 -0.12676,-0.53167 -0.1989,-0.70473 -0.0717,-0.17263 -0.22185,-0.45036 -0.3336,-0.61758 -0.11176,-0.1668 -0.33193,-0.422 -0.48915,-0.56712 -0.1572,-0.14511 -0.39072,-0.32651 -0.51874,-0.40324 -0.12844,-0.0771 -0.34152,-0.18348 -0.47413,-0.23685 -0.13261,-0.0534 -0.39115,-0.12719 -0.57463,-0.16388 -0.29607,-0.0592 -0.84525,-0.0655 -4.8789,-0.055 l -4.5453,0.0117 -0.23727,0.11634 c -0.14053,0.0692 -0.32109,0.2085 -0.44327,0.34194 -0.11342,0.12427 -0.24103,0.31066 -0.28398,0.41533 -0.043,0.10425 -0.088,0.18932 -0.10049,0.18974 -0.0125,0 -0.34862,-1.3152 -0.74727,-2.9228 -0.49039,-1.9766 -0.77648,-3.05 -0.88365,-3.3164 -0.0872,-0.21642 -0.23227,-0.51999 -0.32234,-0.67428 -0.0901,-0.15429 -0.25104,-0.39949 -0.3582,-0.54461 -0.10676,-0.14512 -0.34779,-0.42409 -0.53585,-0.61966 -0.18765,-0.19557 -0.50999,-0.48081 -0.71641,-0.63426 -0.20641,-0.15346 -0.46912,-0.33777 -0.5838,-0.40992 -0.11467,-0.0717 -0.40532,-0.22434 -0.64635,-0.33902 -0.2406,-0.11467 -0.58422,-0.25729 -0.7635,-0.31692 -0.17889,-0.06 -0.49789,-0.1497 -0.7089,-0.19974 l -0.38322,-0.0913 z m 0,2.959 15.387,0.006 0.32484,0.11509 c 0.17889,0.063 0.43451,0.17014 0.56796,0.23769 0.13385,0.0675 0.39656,0.23811 0.58421,0.37947 0.18724,0.14095 0.44244,0.38281 0.5667,0.53668 0.12468,0.15387 0.28272,0.40074 0.35153,0.54793 0.0888,0.19016 0.53918,1.9328 1.5442,5.9752 0.78061,3.1388 1.4191,5.7238 1.4191,5.7442 0,0.0217 -8.718,0.0371 -20.85,0.0371 -12.01,0 -20.85,-0.0154 -20.85,-0.0367 0,-0.0204 0.56378,-2.3048 1.2531,-5.077 0.68888,-2.7722 1.3282,-5.3485 1.4207,-5.7254 0.0942,-0.38406 0.22392,-0.79605 0.29481,-0.93825 0.0701,-0.13928 0.22727,-0.37781 0.34945,-0.53001 0.12259,-0.15263 0.37613,-0.3924 0.56337,-0.53376 0.18723,-0.14095 0.4316,-0.30275 0.54293,-0.35904 0.11134,-0.0567 0.30108,-0.14178 0.42159,-0.18891 0.12051,-0.0475 0.33194,-0.11133 0.46996,-0.14177 0.20641,-0.0455 2.9915,-0.0542 15.638,-0.0488 z m -28.79,8.9925 h 3.6188 l 0.025,0.13553 c 0.0138,0.0746 0.16054,0.9987 0.32609,2.0537 l 0.30107,1.9182 -3.6287,0.0113 c -1.9962,0.007 -3.6709,0.002 -3.7217,-0.0108 -0.0509,-0.0121 -0.11217,-0.0584 -0.13594,-0.103 -0.0234,-0.0442 -0.16472,-0.85403 -0.31359,-1.7993 -0.14928,-0.94537 -0.27105,-1.7848 -0.27105,-1.8656 0,-0.0934 0.0329,-0.18182 0.0905,-0.24353 l 0.0907,-0.0967 z m 57.373,0 h 3.6229 l 0.0867,0.10967 c 0.0476,0.0605 0.0863,0.16555 0.0863,0.23311 0,0.0675 -0.12259,0.90239 -0.27188,1.8548 -0.1497,0.95242 -0.29107,1.7668 -0.314,1.8098 -0.0233,0.043 -0.0838,0.0884 -0.13469,0.1005 -0.0509,0.0125 -1.7264,0.0175 -3.723,0.0109 l -3.6304,-0.0113 0.30233,-1.9182 c 0.16638,-1.055 0.31358,-1.9791 0.32776,-2.0537 l 0.0251,-0.13552 z m -28.688,7.5915 h 23.486 l 1.796,1.7618 c 1.1522,1.1305 1.8524,1.8494 1.954,2.0058 0.0872,0.13427 0.19474,0.34068 0.23852,0.4587 0.0438,0.11801 0.0922,0.29064 0.10759,0.38364 0.0158,0.093 0.19391,2.7668 0.39615,5.9422 0.20224,3.1754 0.35945,5.7875 0.34945,5.8046 -0.01,0.0171 -12.284,0.0313 -27.277,0.0308 -17.92,0 -27.383,-0.0146 -27.623,-0.0421 -0.20016,-0.023 -0.47247,-0.0817 -0.60465,-0.13094 -0.13219,-0.0492 -0.33819,-0.15136 -0.45787,-0.22726 -0.11927,-0.0763 -0.28314,-0.2281 -0.36404,-0.33819 -0.0809,-0.10967 -0.18723,-0.30274 -0.23644,-0.42867 -0.0642,-0.16472 -0.0951,-0.3532 -0.10842,-0.6672 -0.0133,-0.32026 0.0834,-1.6939 0.36154,-5.1232 0.20933,-2.5766 0.40074,-4.7817 0.42576,-4.8998 0.0254,-0.118 0.0892,-0.31232 0.14178,-0.432 0.053,-0.11968 0.1522,-0.29899 0.22059,-0.39866 0.0684,-0.0992 0.93075,-0.97245 1.9166,-1.9403 l 1.8,-1.75 z m -17.368,19.348 h 7.1098 l -8.2e-4,2.012 -8.2e-4,2.012 -0.0801,0.17639 c -0.0463,0.10175 -0.13844,0.21184 -0.21809,0.26063 l -0.13803,0.0838 -6.6874,4.2e-4 h -6.6878 l -0.15721,-0.1572 c -0.0876,-0.0876 -0.17764,-0.23103 -0.20307,-0.32318 -0.0309,-0.11009 -0.0463,-0.82193 -0.0463,-2.1154 l -4.2e-4,-1.9495 z m 34.738,0 h 7.1119 l -0.0125,2.0329 c -0.0109,1.8268 -0.0192,2.0462 -0.0834,2.1634 -0.0396,0.0717 -0.1301,0.17973 -0.20141,0.23978 l -0.12968,0.10925 h -6.6795 l -6.679,-4.2e-4 -0.13803,-0.0838 c -0.0796,-0.0487 -0.17181,-0.15888 -0.21809,-0.26063 l -0.0801,-0.17639 -7.5e-4,-2.012 -7.5e-4,-2.012 z m -33.695,-15.458 c -3.3715,-0.003 -6.2246,0.008 -6.3409,0.0259 -0.11593,0.0171 -0.29732,0.0696 -0.40324,0.11676 -0.10591,0.0467 -0.27981,0.16554 -0.38655,0.26354 -0.10634,0.0984 -0.23769,0.25479 -0.29148,0.34777 -0.0538,0.093 -0.11802,0.2452 -0.1422,0.33778 -0.0246,0.0926 -0.13053,1.7251 -0.23561,3.6279 -0.1055,1.9028 -0.1839,3.595 -0.17389,3.7605 0.0134,0.23061 0.0484,0.36447 0.15054,0.57171 0.0776,0.15763 0.20642,0.33444 0.30858,0.42326 0.0967,0.0842 0.27856,0.20224 0.40491,0.26229 l 0.22935,0.10967 h 14.388 l 0.27814,-0.13678 c 0.17681,-0.0872 0.34611,-0.21267 0.46579,-0.34611 0.10425,-0.1155 0.22852,-0.31524 0.27856,-0.44702 0.0563,-0.14887 0.0913,-0.33902 0.0934,-0.50874 0.002,-0.1889 -0.20182,-1.339 -0.67303,-3.7947 -0.57797,-3.0086 -0.69514,-3.5612 -0.8019,-3.7814 -0.0776,-0.16054 -0.20391,-0.32943 -0.33402,-0.44619 -0.1151,-0.10342 -0.31609,-0.23143 -0.44703,-0.28439 l -0.23775,-0.0975 z m -0.0634,2.9874 h 4.6696 l 0.0217,0.0938 c 0.0117,0.0517 0.17139,0.88192 0.35487,1.8452 0.18348,0.9633 0.34486,1.8031 0.3582,1.8661 l 0.0242,0.11467 h -5.1532 c -4.0949,0 -5.1532,-0.0109 -5.1532,-0.0521 4.1e-4,-0.0288 0.0471,-0.8778 0.10383,-1.8869 0.0571,-1.0091 0.10383,-1.8677 0.10425,-1.9078 l 4.1e-4,-0.073 z m 33.007,-2.9874 c -3.3715,-0.003 -6.2371,0.01 -6.368,0.0296 -0.13094,0.0196 -0.3165,0.0755 -0.41241,0.12426 -0.0959,0.0492 -0.26522,0.17431 -0.37655,0.27814 -0.11134,0.10384 -0.24895,0.28524 -0.3065,0.40283 -0.0801,0.16388 -0.26104,1.0241 -0.78022,3.7163 -0.54544,2.8256 -0.67596,3.5712 -0.67596,3.8572 -4.2e-4,0.29982 0.0171,0.3899 0.11133,0.5838 0.0617,0.12593 0.16889,0.2894 0.23853,0.36321 0.0697,0.0734 0.1914,0.18306 0.27063,0.24353 0.0792,0.0605 0.25895,0.14595 0.39949,0.18973 l 0.2552,0.0792 h 14.037 l 0.2648,-0.083 c 0.14595,-0.0455 0.34986,-0.15012 0.45286,-0.23269 0.10342,-0.0821 0.24729,-0.23727 0.32067,-0.34444 0.073,-0.10717 0.16389,-0.30733 0.20142,-0.44494 l 0.0684,-0.2502 -0.19141,-3.5445 c -0.10509,-1.9495 -0.20183,-3.6196 -0.21434,-3.7113 -0.0129,-0.0917 -0.0788,-0.28273 -0.1472,-0.42451 -0.0776,-0.16221 -0.20141,-0.32817 -0.33277,-0.44619 -0.11508,-0.10341 -0.31608,-0.23143 -0.44702,-0.28439 l -0.23769,-0.0959 z m -0.2306,2.9874 h 4.6717 v 0.14679 c 0,0.0809 0.0371,0.81734 0.0822,1.6367 0.0451,0.81938 0.0934,1.6354 0.10717,1.8131 l 0.025,0.32318 h -5.1529 c -2.834,0 -5.1529,-0.0129 -5.1529,-0.0283 0,-0.0158 0.16097,-0.87405 0.35737,-1.9078 0.19682,-1.0337 0.36487,-1.9028 0.37405,-1.9315 0.0134,-0.0413 0.98745,-0.0521 4.6883,-0.0521 z"
       id="icon" /></g></svg>